<svg width="120" height="162" viewBox="0 0 120 162" fill="none" xmlns="http://www.w3.org/2000/svg">
<path d="M114.45 0H67.93C65.0983 0 62.8027 2.28447 62.8027 5.1025V44.8975C62.8027 47.7155 65.0983 50 67.93 50H114.45C117.281 50 119.577 47.7155 119.577 44.8975V5.1025C119.577 2.28447 117.281 0 114.45 0Z" fill="#FCFFFE"/>
<path d="M51.6468 112H5.12725C2.29555 112 0 114.284 0 117.103V156.898C0 159.716 2.29555 162 5.12725 162H51.6468C54.4785 162 56.774 159.716 56.774 156.898V117.103C56.774 114.284 54.4785 112 51.6468 112Z" fill="#FCFFFE"/>
<path d="M23.2537 1.4945L1.50175 23.1415C0.540107 24.0985 0 25.396 0 26.7495V44.8975C0 47.7155 2.29558 50 5.12725 50H51.6473C54.4789 50 56.7745 47.7155 56.7745 44.8975V5.1025C56.7745 2.2845 54.4789 0 51.6473 0H26.8797C25.5202 0 24.2154 0.5375 23.2537 1.4945Z" fill="#FCFFFE"/>
<path d="M23.2537 104.506L1.50175 82.8585C0.540107 81.9015 0 80.604 0 79.2505V61.1025C0 58.2845 2.29558 56 5.12725 56H51.6473C54.4789 56 56.7745 58.2845 56.7745 61.1025V100.898C56.7745 103.716 54.4789 106.001 51.6473 106.001H26.8797C25.5202 106.001 24.2159 105.463 23.2542 104.506L23.2537 104.506Z" fill="#FCFFFE"/>
<path d="M96.3235 57.494L118.076 79.141C119.037 80.098 119.577 81.3955 119.577 82.749V100.897C119.577 103.715 117.282 106 114.45 106H67.93C65.0983 106 62.8027 103.715 62.8027 100.897V61.1015C62.8027 58.2835 65.0983 55.999 67.93 55.999H92.6975C94.0571 55.999 95.3614 56.5365 96.323 57.4935L96.3235 57.494Z" fill="#FCFFFE"/>
<path d="M96.3235 160.506L118.076 138.859C119.037 137.902 119.577 136.604 119.577 135.251V117.103C119.577 114.285 117.282 112 114.45 112H67.93C65.0983 112 62.8027 114.285 62.8027 117.103V156.898C62.8027 159.716 65.0983 162.001 67.93 162.001H92.6975C94.0571 162.001 95.3614 161.463 96.323 160.506L96.3235 160.506Z" fill="#FCFFFE"/>
</svg>
