<svg width="468" height="162" viewBox="0 0 468 162" fill="none" xmlns="http://www.w3.org/2000/svg">
<g clip-path="url(#clip0_6100_21333)">
<path d="M114.21 0H67.7884C64.9626 0 62.6719 2.28447 62.6719 5.1025V44.8975C62.6719 47.7155 64.9626 50 67.7884 50H114.21C117.036 50 119.327 47.7155 119.327 44.8975V5.1025C119.327 2.28447 117.036 0 114.21 0Z" fill="#111211"/>
<path d="M51.5382 111.999H5.11652C2.29076 111.999 0 114.283 0 117.102V156.897C0 159.715 2.29076 161.999 5.11652 161.999H51.5382C54.364 161.999 56.6548 159.715 56.6548 156.897V117.102C56.6548 114.283 54.364 111.999 51.5382 111.999Z" fill="#111211"/>
<path d="M23.2049 1.4945L1.4986 23.1415C0.538979 24.0985 0 25.396 0 26.7495V44.8975C0 47.7155 2.2908 50 5.11652 50H51.5389C54.3646 50 56.6553 47.7155 56.6553 44.8975V5.1025C56.6553 2.2845 54.3646 0 51.5389 0H26.8233C25.4666 0 24.1645 0.5375 23.2049 1.4945Z" fill="#111211"/>
<path d="M23.2049 104.505L1.4986 82.8575C0.538979 81.9005 0 80.603 0 79.2495V61.1015C0 58.2835 2.2908 55.999 5.11652 55.999H51.5389C54.3646 55.999 56.6553 58.2835 56.6553 61.1015V100.897C56.6553 103.715 54.3646 106 51.5389 106H26.8233C25.4666 106 24.165 105.462 23.2054 104.505L23.2049 104.505Z" fill="#111211"/>
<path d="M96.1203 57.494L117.827 79.141C118.786 80.098 119.325 81.3955 119.325 82.749V100.897C119.325 103.715 117.034 106 114.209 106H67.7864C64.9607 106 62.6699 103.715 62.6699 100.897V61.1015C62.6699 58.2835 64.9607 55.999 67.7864 55.999H92.5019C93.8586 55.999 95.1602 56.5365 96.1198 57.4935L96.1203 57.494Z" fill="#111211"/>
<path d="M96.1203 160.505L117.827 138.858C118.786 137.901 119.325 136.603 119.325 135.25V117.102C119.325 114.284 117.034 111.999 114.209 111.999H67.7864C64.9607 111.999 62.6699 114.284 62.6699 117.102V156.897C62.6699 159.715 64.9607 162 67.7864 162H92.5019C93.8586 162 95.1602 161.462 96.1198 160.505L96.1203 160.505Z" fill="#111211"/>
<g clip-path="url(#clip1_6100_21333)">
<path d="M228.5 73.9687C223.929 71.9086 218.647 70.6161 212.653 70.0906L206.358 69.5291C202.611 69.2301 199.913 68.219 198.266 66.4945C196.617 64.7715 195.794 62.7854 195.794 60.5373C195.794 58.6653 196.243 56.9602 197.142 55.4232C198.041 53.8887 199.407 52.6886 201.244 51.8266C203.08 50.9661 205.347 50.5341 208.044 50.5341C210.891 50.5341 213.271 51.0401 215.182 52.0516C217.092 53.0626 218.534 54.4117 219.508 56.0977C220.481 57.7838 220.97 59.6383 220.97 61.6614H238.953C238.953 56.3417 237.717 51.6776 235.244 47.6685C232.772 43.6604 229.231 40.5313 224.623 38.2832C220.014 36.0352 214.488 34.9111 208.044 34.9111C201.9 34.9111 196.58 35.9422 192.084 38.0022C187.588 40.0643 184.085 43.0039 181.575 46.8255C179.064 50.6471 177.81 55.2182 177.81 60.5378C177.81 67.8065 180.244 73.6322 185.116 78.0153C189.985 82.3989 196.504 84.966 204.672 85.714L210.854 86.1635C215.873 86.613 219.508 87.6071 221.756 89.1421C224.004 90.6787 225.128 92.7577 225.128 95.3803C225.128 97.4789 224.527 99.3334 223.33 100.944C222.13 102.556 220.369 103.81 218.047 104.709C215.724 105.608 212.839 106.058 209.392 106.058C205.571 106.058 202.461 105.515 200.064 104.428C197.665 103.343 195.886 101.898 194.725 100.1C193.563 98.3024 192.983 96.3548 192.983 94.2563H175C175 99.5779 176.33 104.279 178.99 108.362C181.649 112.447 185.526 115.687 190.623 118.084C195.718 120.481 201.975 121.681 209.393 121.681C216.362 121.681 222.355 120.593 227.376 118.421C232.396 116.248 236.273 113.177 239.01 109.204C241.744 105.234 243.112 100.625 243.112 95.3798C243.112 90.2851 241.819 85.9575 239.234 82.3979C236.649 78.8398 233.07 76.0303 228.5 73.9687Z" fill="#111211"/>
<path d="M266.489 41.2046H249.742L249.707 57.8395H241.764V71.1019H249.68L249.629 95.3796C249.629 101.6 250.528 106.526 252.327 110.159C254.126 113.795 256.936 116.398 260.757 117.971C264.578 119.544 269.597 120.332 275.818 120.332H284.472V105.046H275.368C272.52 105.046 270.328 104.279 268.793 102.742C267.257 101.207 266.489 98.9772 266.489 96.0546V71.1029H284.473V57.8405H266.489V41.2046H266.489Z" fill="#111211"/>
<path d="M333.757 60.1437C329.222 57.1842 323.659 55.7036 317.066 55.7036C312.045 55.7036 307.569 56.5856 303.635 58.3452C299.701 60.1062 296.403 62.4858 293.744 65.4819C291.084 68.4795 289.061 71.8706 287.675 75.6537C286.288 79.4383 285.596 83.3919 285.596 87.5115V89.7595C285.596 93.7317 286.288 97.6093 287.675 101.392C289.06 105.177 291.103 108.605 293.8 111.677C296.498 114.75 299.851 117.184 303.86 118.982C307.867 120.78 312.495 121.68 317.741 121.68C322.911 121.68 327.48 120.761 331.453 118.926C335.424 117.091 338.72 114.562 341.344 111.339C343.966 108.119 345.727 104.446 346.626 100.325H330.104C329.354 102.198 327.929 103.772 325.833 105.045C323.734 106.32 321.037 106.956 317.74 106.956C314.143 106.956 311.221 106.208 308.973 104.708C306.726 103.21 305.076 101.093 304.028 98.3578C303.444 96.8372 303.029 95.1667 302.77 93.3561H347.749V87.2865C347.749 81.6668 346.55 76.4792 344.153 71.7196C341.754 66.9619 338.289 63.1038 333.757 60.1432L333.757 60.1437ZM304.14 78.6887C305.264 75.9542 306.912 73.8946 309.086 72.5071C311.258 71.1215 313.919 70.428 317.066 70.428C320.138 70.428 322.703 71.122 324.765 72.5071C326.825 73.8946 328.361 75.8792 329.373 78.4642C329.915 79.8503 330.307 81.4088 330.559 83.1284H302.901C303.182 81.5033 303.593 80.0218 304.14 78.6887Z" fill="#111211"/>
<path d="M346.287 37.3838V50.6462H353.593V119.432H371.688V37.3838H346.287Z" fill="#111211"/>
<path d="M456.986 51.77C460.358 51.77 462.849 50.89 464.461 49.1289C466.071 47.3689 466.877 45.1393 466.877 42.4413C466.877 39.6702 466.071 37.4031 464.461 35.6411C462.848 33.8815 460.358 33 456.986 33C453.615 33 451.122 33.882 449.512 35.6411C447.9 37.4026 447.096 39.6702 447.096 42.4413C447.096 45.1393 447.9 47.3689 449.512 49.1289C451.123 50.89 453.615 51.77 456.986 51.77Z" fill="#111211"/>
<path d="M441.701 57.8398V71.2147H449.906V119.432H468.001V57.8398H441.701Z" fill="#111211"/>
<path d="M420.363 57.8398L409.125 104.484H406.492L393.38 57.8398H374.828L393.267 119.432H421.825L437.791 57.8398H420.363Z" fill="#111211"/>
</g>
</g>
<defs>
<clipPath id="clip0_6100_21333">
<rect width="468" height="162" fill="white"/>
</clipPath>
<clipPath id="clip1_6100_21333">
<rect width="293.001" height="88.68" fill="white" transform="translate(175 33)"/>
</clipPath>
</defs>
</svg>
