<svg width="468" height="162" viewBox="0 0 468 162" fill="none" xmlns="http://www.w3.org/2000/svg">
<g clip-path="url(#clip0_6100_21455)">
<path d="M198.513 148.837C197.339 149.684 195.892 150.107 194.174 150.107C192.999 150.107 191.967 149.909 191.076 149.511C190.184 149.114 189.435 148.555 188.827 147.833C188.219 147.112 187.763 146.271 187.459 145.309C187.155 144.347 187.003 143.302 187.003 142.173C187.003 141.023 187.155 139.967 187.459 139.005C187.763 138.044 188.208 137.207 188.795 136.496C189.382 135.786 190.117 135.231 190.997 134.834C191.878 134.437 192.873 134.238 193.985 134.238C195.096 134.238 196.097 134.426 196.988 134.803C197.879 135.179 198.612 135.723 199.189 136.434C199.766 137.145 200.127 138.023 200.274 139.068H204.803C204.614 137.27 204.059 135.702 203.136 134.364C202.214 133.026 200.976 131.98 199.425 131.228C197.874 130.475 196.06 130.099 193.985 130.099C191.993 130.099 190.268 130.439 188.812 131.118C187.355 131.798 186.159 132.702 185.227 133.831C184.294 134.96 183.602 136.215 183.151 137.595C182.7 138.975 182.475 140.376 182.475 141.797V142.487C182.475 143.784 182.694 145.117 183.135 146.486C183.575 147.856 184.262 149.132 185.195 150.312C186.127 151.494 187.333 152.445 188.811 153.166C190.289 153.887 192.076 154.248 194.173 154.248C196.354 154.248 198.23 153.841 199.802 153.025C201.375 152.21 202.612 151.123 203.513 149.764C204.415 148.405 204.97 146.91 205.18 145.279H200.651C200.4 146.805 199.687 147.992 198.512 148.838L198.513 148.837Z" fill="#FCFFFE"/>
<path d="M222.682 138.675C221.875 137.85 220.894 137.201 219.742 136.731C218.588 136.26 217.288 136.025 215.842 136.025C214.395 136.025 213.09 136.26 211.927 136.731C210.763 137.201 209.777 137.85 208.971 138.675C208.164 139.501 207.55 140.442 207.131 141.498C206.711 142.554 206.502 143.667 206.502 144.838V145.496C206.502 146.646 206.706 147.744 207.115 148.789C207.524 149.835 208.127 150.765 208.924 151.581C209.72 152.396 210.695 153.044 211.848 153.525C213.001 154.006 214.332 154.247 215.842 154.247C217.331 154.247 218.652 154.006 219.804 153.525C220.957 153.044 221.932 152.396 222.729 151.581C223.526 150.765 224.129 149.835 224.537 148.789C224.946 147.744 225.151 146.646 225.151 145.496V144.838C225.151 143.667 224.941 142.554 224.522 141.498C224.102 140.442 223.488 139.501 222.682 138.675ZM220.197 147.895C219.809 148.7 219.248 149.338 218.515 149.809C217.781 150.279 216.89 150.514 215.842 150.514C214.773 150.514 213.871 150.279 213.138 149.809C212.403 149.338 211.843 148.701 211.455 147.895C211.067 147.091 210.873 146.176 210.873 145.151C210.873 144.127 211.072 143.207 211.47 142.391C211.869 141.576 212.44 140.933 213.185 140.463C213.928 139.992 214.815 139.757 215.842 139.757C216.869 139.757 217.75 139.992 218.484 140.463C219.218 140.933 219.784 141.576 220.182 142.391C220.58 143.207 220.78 144.127 220.78 145.151C220.78 146.175 220.585 147.091 220.197 147.895Z" fill="#FCFFFE"/>
<path d="M232.949 138.299C232.156 139.256 231.664 140.546 231.471 142.167V136.622H228.012V153.652H232.383V144.808C232.383 143.323 232.787 142.184 233.594 141.389C234.401 140.595 235.538 140.197 237.006 140.197H238.202V136.402H237.572C235.538 136.402 233.998 137.035 232.949 138.3L232.949 138.299Z" fill="#FCFFFE"/>
<path d="M256.111 138.597C255.408 137.802 254.57 137.185 253.595 136.746C252.62 136.307 251.524 136.088 250.308 136.088C248.987 136.088 247.792 136.375 246.723 136.95C245.654 137.526 244.799 138.398 244.16 139.569C243.94 139.973 243.764 140.423 243.61 140.893V136.621H240.15V159.923H244.522V151.36C245.132 152.26 245.885 152.954 246.802 153.416C247.86 153.949 249.029 154.215 250.309 154.215C251.524 154.215 252.625 153.99 253.611 153.541C254.596 153.092 255.439 152.47 256.142 151.675C256.845 150.88 257.379 149.95 257.746 148.883C258.112 147.817 258.296 146.667 258.296 145.433V144.775C258.296 143.563 258.108 142.428 257.73 141.372C257.353 140.316 256.813 139.391 256.111 138.596L256.111 138.597ZM253.312 147.927C252.924 148.753 252.373 149.396 251.661 149.855C250.947 150.315 250.13 150.545 249.208 150.545C248.39 150.545 247.614 150.357 246.88 149.981C246.146 149.605 245.549 149.071 245.087 148.381C244.626 147.691 244.396 146.855 244.396 145.872V144.618C244.396 143.594 244.621 142.72 245.072 141.999C245.523 141.278 246.11 140.724 246.833 140.337C247.557 139.95 248.348 139.757 249.208 139.757C250.151 139.757 250.973 139.982 251.676 140.431C252.378 140.881 252.923 141.508 253.312 142.313C253.699 143.118 253.893 144.053 253.893 145.12C253.893 146.165 253.699 147.101 253.312 147.927Z" fill="#FCFFFE"/>
<path d="M276.206 138.675C275.399 137.85 274.418 137.201 273.265 136.731C272.112 136.26 270.812 136.025 269.365 136.025C267.919 136.025 266.614 136.26 265.45 136.731C264.287 137.201 263.301 137.85 262.494 138.675C261.687 139.501 261.074 140.442 260.655 141.498C260.235 142.554 260.025 143.667 260.025 144.838V145.496C260.025 146.646 260.23 147.744 260.639 148.789C261.047 149.835 261.65 150.765 262.447 151.581C263.244 152.396 264.218 153.044 265.372 153.525C266.525 154.006 267.856 154.247 269.365 154.247C270.854 154.247 272.175 154.006 273.328 153.525C274.481 153.044 275.456 152.396 276.253 151.581C277.05 150.765 277.652 149.835 278.061 148.789C278.469 147.744 278.674 146.646 278.674 145.496V144.838C278.674 143.667 278.464 142.554 278.045 141.498C277.626 140.442 277.012 139.501 276.206 138.675ZM273.721 147.895C273.333 148.7 272.772 149.338 272.039 149.809C271.305 150.279 270.414 150.514 269.365 150.514C268.297 150.514 267.395 150.279 266.661 149.809C265.927 149.338 265.366 148.701 264.979 147.895C264.59 147.091 264.397 146.176 264.397 145.151C264.397 144.127 264.595 143.207 264.994 142.391C265.392 141.576 265.964 140.933 266.708 140.463C267.452 139.992 268.338 139.757 269.365 139.757C270.393 139.757 271.273 139.992 272.008 140.463C272.741 140.933 273.307 141.576 273.706 142.391C274.104 143.207 274.303 144.127 274.303 145.151C274.303 146.175 274.108 147.091 273.721 147.895Z" fill="#FCFFFE"/>
<path d="M286.472 138.299C285.68 139.256 285.188 140.546 284.995 142.167V136.622H281.535V153.652H285.907V144.808C285.907 143.323 286.31 142.184 287.117 141.389C287.924 140.595 289.062 140.197 290.53 140.197H291.725V136.402H291.096C289.062 136.402 287.521 137.035 286.473 138.3L286.472 138.299Z" fill="#FCFFFE"/>
<path d="M303.848 137.06C302.684 136.601 301.222 136.37 299.461 136.37C298.895 136.37 298.287 136.376 297.637 136.386C296.986 136.396 296.363 136.423 295.766 136.464C295.169 136.506 294.628 136.548 294.146 136.59V140.291C294.733 140.249 295.399 140.212 296.143 140.181C296.887 140.149 297.626 140.123 298.36 140.102C299.094 140.081 299.723 140.071 300.247 140.071C301.233 140.071 301.967 140.317 302.449 140.808C302.931 141.299 303.172 142.026 303.172 142.987V143.144H299.713C298.203 143.144 296.882 143.343 295.751 143.74C294.618 144.137 293.748 144.733 293.14 145.528C292.532 146.322 292.229 147.347 292.229 148.601C292.229 149.751 292.485 150.734 292.999 151.549C293.512 152.365 294.23 152.992 295.154 153.431C296.076 153.87 297.155 154.09 298.392 154.09C299.588 154.09 300.599 153.875 301.428 153.447C302.255 153.019 302.906 152.396 303.377 151.581C303.589 151.214 303.759 150.804 303.896 150.362V153.651H307.387V143.113C307.387 141.524 307.088 140.233 306.491 139.239C305.893 138.247 305.013 137.52 303.849 137.06L303.848 137.06ZM301.332 150.656C300.818 150.875 300.257 150.985 299.65 150.985C298.644 150.985 297.873 150.745 297.339 150.264C296.804 149.783 296.537 149.156 296.537 148.382C296.537 147.609 296.804 146.982 297.339 146.5C297.873 146.02 298.644 145.779 299.65 145.779H303.172V147.347C303.13 148.267 302.941 148.993 302.606 149.526C302.27 150.059 301.846 150.436 301.332 150.655V150.656Z" fill="#FCFFFE"/>
<path d="M315.721 131.822H311.601V136.621H308.896V139.82H311.601V147.253C311.601 148.905 311.847 150.217 312.34 151.189C312.833 152.161 313.587 152.851 314.605 153.259C315.621 153.666 316.927 153.87 318.521 153.87H320.974V150.138H318.301C317.462 150.138 316.817 149.914 316.367 149.464C315.916 149.015 315.691 148.371 315.691 147.535L315.706 139.82H320.974V136.621H315.712L315.722 131.823L315.721 131.822Z" fill="#FCFFFE"/>
<path d="M335.675 137.233C334.428 136.428 332.881 136.025 331.037 136.025C329.632 136.025 328.389 136.271 327.31 136.762C326.23 137.254 325.334 137.912 324.621 138.738C323.908 139.564 323.368 140.505 323.002 141.561C322.635 142.617 322.451 143.709 322.451 144.838V145.434C322.451 146.522 322.634 147.588 323.002 148.633C323.368 149.679 323.914 150.625 324.637 151.472C325.36 152.318 326.273 152.993 327.373 153.495C328.474 153.996 329.758 154.247 331.226 154.247C332.63 154.247 333.883 154.007 334.984 153.526C336.084 153.045 336.991 152.365 337.704 151.487C338.417 150.609 338.9 149.585 339.151 148.414H335.094C334.905 149.041 334.476 149.569 333.805 149.997C333.133 150.426 332.274 150.64 331.226 150.64C330.156 150.64 329.276 150.405 328.584 149.934C327.892 149.464 327.378 148.816 327.043 147.99C326.825 147.452 326.685 146.858 326.609 146.218H339.434V144.618C339.434 143.113 339.119 141.707 338.49 140.4C337.861 139.093 336.923 138.037 335.676 137.232L335.675 137.233ZM328.584 140.306C329.254 139.857 330.072 139.632 331.037 139.632C332.001 139.632 332.798 139.841 333.427 140.259C334.056 140.677 334.532 141.273 334.858 142.046C335.042 142.485 335.168 142.981 335.248 143.52H326.677C326.763 143.042 326.89 142.602 327.059 142.203C327.404 141.388 327.913 140.755 328.584 140.306L328.584 140.306Z" fill="#FCFFFE"/>
<path d="M361.462 141.2C360.236 140.636 358.794 140.291 357.138 140.165L355.157 139.977C354.025 139.894 353.196 139.585 352.672 139.052C352.148 138.519 351.886 137.897 351.886 137.186C351.886 136.601 352.033 136.062 352.327 135.571C352.62 135.08 353.055 134.682 353.632 134.379C354.208 134.076 354.938 133.924 355.817 133.924C356.74 133.924 357.505 134.092 358.113 134.426C358.721 134.76 359.172 135.194 359.466 135.727C359.759 136.26 359.906 136.831 359.906 137.437H364.277C364.277 135.952 363.936 134.661 363.255 133.563C362.574 132.465 361.598 131.614 360.33 131.007C359.062 130.401 357.558 130.098 355.817 130.098C354.14 130.098 352.677 130.385 351.431 130.96C350.183 131.536 349.213 132.351 348.522 133.407C347.83 134.463 347.484 135.723 347.484 137.186C347.484 139.131 348.139 140.694 349.449 141.875C350.759 143.056 352.516 143.741 354.717 143.929L356.73 144.117C358.198 144.242 359.277 144.551 359.969 145.042C360.661 145.533 361.007 146.176 361.007 146.971C361.007 147.619 360.823 148.199 360.456 148.711C360.089 149.224 359.544 149.637 358.821 149.95C358.098 150.264 357.18 150.421 356.069 150.421C354.874 150.421 353.904 150.243 353.16 149.888C352.416 149.532 351.876 149.067 351.541 148.492C351.205 147.917 351.037 147.326 351.037 146.72H346.666C346.666 148.162 347.028 149.454 347.751 150.593C348.474 151.733 349.538 152.627 350.943 153.275C352.348 153.923 354.056 154.247 356.069 154.247C357.977 154.247 359.628 153.944 361.022 153.338C362.416 152.732 363.491 151.879 364.246 150.782C365.001 149.684 365.378 148.414 365.378 146.971C365.378 145.612 365.033 144.452 364.341 143.49C363.649 142.529 362.689 141.765 361.463 141.201L361.462 141.2Z" fill="#FCFFFE"/>
<path d="M385.858 150.076H385.194L382.265 137.186H377.233L374.697 150.076H374.038L370.535 136.621H366.289L370.943 153.651H372.705H373.994H374.969H376.164H377.202L379.711 141.444L382.548 153.651H383.649H385.032H386.007H387.108H388.806L392.926 136.621H388.964L385.858 150.076Z" fill="#FCFFFE"/>
<path d="M407.093 137.233C405.846 136.428 404.299 136.025 402.455 136.025C401.05 136.025 399.807 136.271 398.728 136.762C397.648 137.254 396.752 137.912 396.039 138.738C395.326 139.564 394.786 140.505 394.42 141.561C394.053 142.617 393.869 143.709 393.869 144.838V145.434C393.869 146.522 394.052 147.588 394.42 148.633C394.786 149.679 395.332 150.625 396.055 151.472C396.778 152.318 397.691 152.993 398.791 153.495C399.892 153.996 401.176 154.247 402.644 154.247C404.048 154.247 405.301 154.007 406.402 153.526C407.502 153.045 408.409 152.365 409.122 151.487C409.835 150.609 410.318 149.585 410.569 148.414H406.512C406.323 149.041 405.894 149.569 405.223 149.997C404.551 150.426 403.692 150.64 402.644 150.64C401.574 150.64 400.694 150.405 400.002 149.934C399.31 149.464 398.796 148.816 398.461 147.99C398.243 147.452 398.103 146.858 398.026 146.218H410.852V144.618C410.852 143.113 410.537 141.707 409.908 140.4C409.279 139.093 408.341 138.037 407.094 137.232L407.093 137.233ZM400.001 140.306C400.672 139.857 401.49 139.632 402.455 139.632C403.419 139.632 404.216 139.841 404.845 140.259C405.474 140.677 405.95 141.273 406.276 142.046C406.46 142.485 406.586 142.981 406.666 143.52H398.095C398.181 143.042 398.308 142.602 398.477 142.203C398.822 141.388 399.331 140.755 400.002 140.306L400.001 140.306Z" fill="#FCFFFE"/>
<path d="M425.617 137.233C424.369 136.428 422.823 136.025 420.978 136.025C419.573 136.025 418.331 136.271 417.251 136.762C416.171 137.254 415.275 137.912 414.562 138.738C413.85 139.564 413.31 140.505 412.943 141.561C412.576 142.617 412.393 143.709 412.393 144.838V145.434C412.393 146.522 412.576 147.588 412.943 148.633C413.31 149.679 413.855 150.625 414.579 151.472C415.302 152.318 416.214 152.993 417.314 153.495C418.415 153.996 419.699 154.247 421.167 154.247C422.572 154.247 423.825 154.007 424.925 153.526C426.026 153.045 426.933 152.365 427.646 151.487C428.358 150.609 428.841 149.585 429.092 148.414H425.036C424.847 149.041 424.417 149.569 423.746 149.997C423.075 150.426 422.215 150.64 421.167 150.64C420.098 150.64 419.217 150.405 418.525 149.934C417.833 149.464 417.32 148.816 416.985 147.99C416.766 147.452 416.626 146.858 416.55 146.218H429.375V144.618C429.375 143.113 429.061 141.707 428.432 140.4C427.803 139.093 426.864 138.037 425.617 137.232L425.617 137.233ZM418.525 140.306C419.196 139.857 420.014 139.632 420.979 139.632C421.943 139.632 422.74 139.841 423.369 140.259C423.998 140.677 424.474 141.273 424.8 142.046C424.984 142.485 425.11 142.981 425.19 143.52H416.619C416.705 143.042 416.832 142.602 417.001 142.203C417.346 141.388 417.854 140.755 418.526 140.306L418.525 140.306Z" fill="#FCFFFE"/>
<path d="M436.67 131.822H432.551V136.621H429.846V139.82H432.551V147.253C432.551 148.905 432.797 150.217 433.29 151.189C433.782 152.161 434.537 152.851 435.554 153.259C436.571 153.666 437.876 153.87 439.47 153.87H441.923V150.138H439.25C438.411 150.138 437.766 149.914 437.316 149.464C436.865 149.015 436.64 148.371 436.64 147.535L436.655 139.82H441.923V136.621H436.661L436.671 131.823L436.67 131.822Z" fill="#FCFFFE"/>
<path d="M456.436 144.995C455.293 144.097 453.715 143.542 451.703 143.333L450.193 143.176C449.27 143.072 448.605 142.874 448.196 142.58C447.788 142.288 447.583 141.87 447.583 141.326C447.583 140.761 447.835 140.302 448.338 139.946C448.841 139.591 449.553 139.413 450.476 139.413C451.504 139.413 452.284 139.622 452.819 140.04C453.354 140.458 453.653 140.97 453.716 141.576H457.647C457.584 139.778 456.903 138.42 455.603 137.499C454.302 136.579 452.605 136.119 450.508 136.119C449.145 136.119 447.945 136.323 446.907 136.731C445.869 137.138 445.057 137.74 444.47 138.534C443.883 139.329 443.59 140.312 443.59 141.482C443.59 142.946 444.103 144.122 445.13 145.011C446.157 145.9 447.635 146.438 449.565 146.626L451.043 146.782C452.196 146.908 453.008 147.138 453.48 147.472C453.951 147.807 454.187 148.246 454.187 148.79C454.187 149.438 453.873 149.95 453.244 150.326C452.615 150.703 451.787 150.891 450.759 150.891C449.501 150.891 448.578 150.651 447.992 150.17C447.405 149.689 447.08 149.156 447.017 148.57H443.055C443.138 150.327 443.845 151.702 445.177 152.695C446.508 153.688 448.348 154.184 450.697 154.184C452.206 154.184 453.516 153.959 454.627 153.51C455.739 153.06 456.603 152.417 457.222 151.581C457.84 150.745 458.15 149.762 458.15 148.633C458.15 147.107 457.578 145.894 456.436 144.995Z" fill="#FCFFFE"/>
<path d="M114.21 0H67.7884C64.9626 0 62.6719 2.28446 62.6719 5.10248V44.8973C62.6719 47.7153 64.9626 49.9998 67.7884 49.9998H114.21C117.036 49.9998 119.327 47.7153 119.327 44.8973V5.10248C119.327 2.28446 117.036 0 114.21 0Z" fill="#FCFFFE"/>
<path d="M51.5383 112H5.11652C2.29077 112 0 114.284 0 117.102V156.897C0 159.715 2.29077 162 5.11652 162H51.5383C54.3641 162 56.6549 159.715 56.6549 156.897V117.102C56.6549 114.284 54.3641 112 51.5383 112Z" fill="#FCFFFE"/>
<path d="M23.2049 1.49449L1.4986 23.1414C0.53898 24.0984 0 25.3959 0 26.7494V44.8973C0 47.7153 2.2908 49.9998 5.11652 49.9998H51.5388C54.3645 49.9998 56.6553 47.7153 56.6553 44.8973V5.10248C56.6553 2.28449 54.3645 0 51.5388 0H26.8233C25.4666 0 24.1645 0.537498 23.2049 1.49449Z" fill="#FCFFFE"/>
<path d="M23.2049 104.505L1.4986 82.8584C0.53898 81.9014 0 80.6039 0 79.2504V61.1025C0 58.2845 2.2908 56 5.11652 56H51.5388C54.3645 56 56.6553 58.2845 56.6553 61.1025V100.898C56.6553 103.716 54.3645 106 51.5388 106H26.8233C25.4666 106 24.165 105.463 23.2054 104.506L23.2049 104.505Z" fill="#FCFFFE"/>
<path d="M96.1204 57.494L117.827 79.1409C118.786 80.0979 119.325 81.3954 119.325 82.7489V100.897C119.325 103.715 117.034 105.999 114.209 105.999H67.7864C64.9607 105.999 62.6699 103.715 62.6699 100.897V61.1015C62.6699 58.2835 64.9607 55.999 67.7864 55.999H92.5019C93.8587 55.999 95.1602 56.5365 96.1199 57.4935L96.1204 57.494Z" fill="#FCFFFE"/>
<path d="M96.1204 160.505L117.827 138.858C118.786 137.901 119.325 136.604 119.325 135.25V117.102C119.325 114.284 117.034 112 114.209 112H67.7864C64.9607 112 62.6699 114.284 62.6699 117.102V156.898C62.6699 159.716 64.9607 162 67.7864 162H92.5019C93.8587 162 95.1602 161.463 96.1199 160.506L96.1204 160.505Z" fill="#FCFFFE"/>
<g clip-path="url(#clip1_6100_21455)">
<path d="M228.5 59.9687C223.929 57.9086 218.647 56.6161 212.653 56.0906L206.358 55.5291C202.611 55.2301 199.913 54.219 198.266 52.4945C196.617 50.7715 195.794 48.7854 195.794 46.5373C195.794 44.6653 196.243 42.9602 197.142 41.4232C198.041 39.8887 199.407 38.6886 201.244 37.8266C203.08 36.9661 205.347 36.5341 208.044 36.5341C210.891 36.5341 213.271 37.0401 215.182 38.0516C217.092 39.0626 218.534 40.4117 219.508 42.0977C220.481 43.7838 220.97 45.6383 220.97 47.6614H238.953C238.953 42.3417 237.717 37.6776 235.244 33.6685C232.772 29.6604 229.231 26.5313 224.623 24.2832C220.014 22.0352 214.488 20.9111 208.044 20.9111C201.9 20.9111 196.58 21.9422 192.084 24.0022C187.588 26.0643 184.085 29.0039 181.575 32.8255C179.064 36.6471 177.81 41.2182 177.81 46.5378C177.81 53.8065 180.244 59.6322 185.116 64.0153C189.985 68.3989 196.504 70.966 204.672 71.714L210.854 72.1635C215.873 72.613 219.508 73.6071 221.756 75.1421C224.004 76.6787 225.128 78.7577 225.128 81.3803C225.128 83.4789 224.527 85.3334 223.33 86.9439C222.13 88.556 220.369 89.8095 218.047 90.709C215.724 91.6081 212.839 92.0576 209.392 92.0576C205.571 92.0576 202.461 91.5151 200.064 90.4275C197.665 89.3425 195.886 87.8985 194.725 86.1004C193.563 84.3024 192.983 82.3548 192.983 80.2563H175C175 85.5779 176.33 90.279 178.99 94.3621C181.649 98.4468 185.526 101.687 190.623 104.084C195.718 106.481 201.975 107.681 209.393 107.681C216.362 107.681 222.355 106.593 227.376 104.421C232.396 102.248 236.273 99.1768 239.01 95.2042C241.744 91.2336 243.112 86.6254 243.112 81.3798C243.112 76.2851 241.819 71.9575 239.234 68.3979C236.649 64.8398 233.07 62.0303 228.5 59.9687Z" fill="#FCFFFE"/>
<path d="M266.489 27.2051H249.742L249.707 43.84H241.764V57.1024H249.68L249.629 81.3801C249.629 87.6002 250.528 92.5264 252.327 96.16C254.126 99.7956 256.936 102.398 260.757 103.972C264.578 105.545 269.597 106.332 275.818 106.332H284.472V91.0463H275.368C272.52 91.0463 270.328 90.2793 268.793 88.7428C267.257 87.2077 266.489 84.9777 266.489 82.0551V57.1034H284.473V43.841H266.489V27.2051H266.489Z" fill="#FCFFFE"/>
<path d="M333.757 46.1437C329.222 43.1842 323.659 41.7036 317.066 41.7036C312.045 41.7036 307.569 42.5856 303.635 44.3452C299.701 46.1062 296.403 48.4858 293.744 51.4819C291.084 54.4795 289.061 57.8706 287.675 61.6537C286.288 65.4383 285.596 69.3919 285.596 73.5115V75.7595C285.596 79.7317 286.288 83.6093 287.675 87.3924C289.06 91.177 291.103 94.6051 293.8 97.6766C296.498 100.75 299.851 103.184 303.86 104.982C307.867 106.78 312.495 107.68 317.741 107.68C322.911 107.68 327.48 106.761 331.453 104.926C335.424 103.091 338.72 100.562 341.344 97.3391C343.966 94.1185 345.727 90.4464 346.626 86.3248H330.104C329.354 88.1984 327.929 89.7724 325.833 91.045C323.734 92.32 321.037 92.9555 317.74 92.9555C314.143 92.9555 311.221 92.2075 308.973 90.708C306.726 89.2099 305.076 87.0934 304.028 84.3578C303.444 82.8372 303.029 81.1667 302.77 79.3561H347.749V73.2865C347.749 67.6668 346.55 62.4792 344.153 57.7196C341.754 52.9619 338.289 49.1038 333.757 46.1432L333.757 46.1437ZM304.14 64.6887C305.264 61.9542 306.912 59.8946 309.086 58.5071C311.258 57.1215 313.919 56.428 317.066 56.428C320.138 56.428 322.703 57.122 324.765 58.5071C326.825 59.8946 328.361 61.8792 329.373 64.4642C329.915 65.8503 330.307 67.4088 330.559 69.1284H302.901C303.182 67.5033 303.593 66.0218 304.14 64.6887Z" fill="#FCFFFE"/>
<path d="M346.287 23.3838V36.6462H353.593V105.432H371.688V23.3838H346.287Z" fill="#FCFFFE"/>
<path d="M456.986 37.77C460.358 37.77 462.849 36.89 464.461 35.1289C466.071 33.3689 466.877 31.1393 466.877 28.4413C466.877 25.6702 466.071 23.4031 464.461 21.6411C462.848 19.8815 460.358 19 456.986 19C453.615 19 451.122 19.882 449.512 21.6411C447.9 23.4026 447.096 25.6702 447.096 28.4413C447.096 31.1393 447.9 33.3689 449.512 35.1289C451.123 36.89 453.615 37.77 456.986 37.77Z" fill="#FCFFFE"/>
<path d="M441.701 43.8398V57.2147H449.906V105.432H468.001V43.8398H441.701Z" fill="#FCFFFE"/>
<path d="M420.363 43.8398L409.125 90.4836H406.492L393.38 43.8398H374.828L393.267 105.432H421.825L437.791 43.8398H420.363Z" fill="#FCFFFE"/>
</g>
</g>
<defs>
<clipPath id="clip0_6100_21455">
<rect width="468" height="162" fill="white"/>
</clipPath>
<clipPath id="clip1_6100_21455">
<rect width="293.001" height="88.68" fill="white" transform="translate(175 19)"/>
</clipPath>
</defs>
</svg>
