<svg width="88" height="163" viewBox="0 0 88 163" fill="none" xmlns="http://www.w3.org/2000/svg">
<path d="M83.2695 0.333008H49.4238C47.3635 0.333008 45.6934 2.00314 45.6934 4.06338V33.1571C45.6934 35.2174 47.3635 36.8875 49.4238 36.8875H83.2695C85.3298 36.8875 87 35.2174 87 33.1571V4.06338C87 2.00314 85.3298 0.333008 83.2695 0.333008Z" fill="#FCFFFE"/>
<path d="M37.5762 82.2148H3.73042C1.67018 82.2148 0 83.885 0 85.9453V115.039C0 117.099 1.67018 118.769 3.73042 118.769H37.5762C39.6364 118.769 41.3066 117.099 41.3066 115.039V85.9453C41.3066 83.885 39.6364 82.2148 37.5762 82.2148Z" fill="#FCFFFE"/>
<path d="M16.9185 1.42501L1.09262 17.2509C0.392966 17.9506 0 18.8992 0 19.8887V33.1565C0 35.2167 1.6702 36.8869 3.73042 36.8869H37.5766C39.6368 36.8869 41.307 35.2167 41.307 33.1565V4.0624C41.307 2.00219 39.6368 0.332031 37.5766 0.332031H19.5567C18.5675 0.332031 17.6185 0.724997 16.9189 1.42465L16.9185 1.42501Z" fill="#FCFFFE"/>
<path d="M16.9185 76.7351L1.09262 60.9092C0.392966 60.2095 0 59.2609 0 58.2714V45.0036C0 42.9434 1.6702 41.2732 3.73042 41.2732H37.5766C39.6368 41.2732 41.307 42.9434 41.307 45.0036V74.0976C41.307 76.1579 39.6368 77.8281 37.5766 77.8281H19.5567C18.5675 77.8281 17.6185 77.4351 16.9189 76.7354L16.9185 76.7351Z" fill="#FCFFFE"/>
<path d="M70.0818 42.3662L85.9077 58.1921C86.6073 58.8917 87.0003 59.8403 87.0003 60.8299V74.0976C87.0003 76.1579 85.3301 77.8281 83.2699 77.8281H49.4238C47.3636 77.8281 45.6934 76.1579 45.6934 74.0976V45.0036C45.6934 42.9434 47.3636 41.2732 49.4238 41.2732H67.4437C68.4328 41.2732 69.3818 41.6662 70.0814 42.3658L70.0818 42.3662Z" fill="#FCFFFE"/>
<path d="M70.0818 117.677L85.9077 101.851C86.6073 101.151 87.0003 100.203 87.0003 99.213V85.9453C87.0003 83.885 85.3301 82.2148 83.2699 82.2148H49.4238C47.3636 82.2148 45.6934 83.885 45.6934 85.9453V115.039C45.6934 117.1 47.3636 118.77 49.4238 118.77H67.4437C68.4328 118.77 69.3818 118.377 70.0814 117.677L70.0818 117.677Z" fill="#FCFFFE"/>
<g clip-path="url(#clip0_6100_21557)">
<path d="M20.9916 150.702C19.8838 150.214 18.6038 149.908 17.1514 149.783L15.6261 149.65C14.718 149.58 14.0643 149.34 13.6652 148.932C13.2655 148.524 13.066 148.053 13.066 147.521C13.066 147.078 13.1748 146.674 13.3928 146.31C13.6107 145.947 13.9417 145.662 14.3868 145.458C14.8316 145.255 15.381 145.152 16.0347 145.152C16.7244 145.152 17.3012 145.272 17.7641 145.512C18.2271 145.751 18.5764 146.07 18.8126 146.47C19.0484 146.869 19.1667 147.308 19.1667 147.787H23.5245C23.5245 146.528 23.2249 145.423 22.6257 144.474C22.0266 143.525 21.1686 142.784 20.052 142.251C18.9352 141.719 17.596 141.453 16.0347 141.453C14.5457 141.453 13.2566 141.697 12.1673 142.185C11.0778 142.673 10.2288 143.369 9.62064 144.274C9.01216 145.179 8.70828 146.261 8.70828 147.521C8.70828 149.242 9.2981 150.622 10.4786 151.66C11.6586 152.698 13.2382 153.306 15.2175 153.483L16.7155 153.59C17.9317 153.696 18.8126 153.931 19.3573 154.295C19.9021 154.659 20.1743 155.151 20.1743 155.772C20.1743 156.269 20.0288 156.708 19.7386 157.09C19.448 157.471 19.0211 157.768 18.4585 157.981C17.8956 158.194 17.1964 158.301 16.3613 158.301C15.4353 158.301 14.6818 158.172 14.1008 157.915C13.5196 157.658 13.0885 157.316 12.8071 156.89C12.5254 156.464 12.385 156.003 12.385 155.506H8.02734C8.02734 156.766 8.34952 157.879 8.99423 158.846C9.63845 159.814 10.5781 160.581 11.8131 161.148C13.0476 161.716 14.5639 162 16.3614 162C18.0501 162 19.5025 161.743 20.7192 161.228C21.9354 160.714 22.8751 159.986 23.5382 159.046C24.2007 158.105 24.5322 157.014 24.5322 155.772C24.5322 154.566 24.219 153.541 23.5926 152.698C22.9662 151.855 22.0989 151.19 20.9916 150.702Z" fill="#FCFFFE"/>
<path d="M30.1965 142.943H26.1384L26.13 146.882H24.2051V150.023H26.1233L26.1111 155.772C26.1111 157.245 26.329 158.411 26.7648 159.272C27.2006 160.133 27.8815 160.749 28.8075 161.122C29.7335 161.494 30.9498 161.681 32.457 161.681H34.5542V158.061H32.3481C31.6578 158.061 31.1268 157.879 30.7549 157.515C30.3826 157.152 30.1966 156.624 30.1966 155.932V150.023H34.5544V146.882H30.1966V142.943H30.1965Z" fill="#FCFFFE"/>
<path d="M46.4966 147.428C45.3978 146.727 44.0497 146.376 42.4521 146.376C41.2355 146.376 40.1507 146.585 39.1975 147.002C38.2442 147.419 37.445 147.983 36.8008 148.692C36.1561 149.402 35.6658 150.205 35.33 151.101C34.9939 151.997 34.8262 152.933 34.8262 153.909V154.441C34.8262 155.382 34.9939 156.3 35.33 157.196C35.6657 158.092 36.1607 158.904 36.8143 159.631C37.468 160.359 38.2804 160.935 39.2519 161.361C40.223 161.787 41.3444 162 42.6155 162C43.8683 162 44.9757 161.783 45.9383 161.348C46.9005 160.913 47.6993 160.314 48.335 159.551C48.9704 158.789 49.3973 157.919 49.615 156.943H45.6114C45.4297 157.387 45.0845 157.759 44.5764 158.061C44.0679 158.363 43.4142 158.513 42.6154 158.513C41.7439 158.513 41.0358 158.336 40.491 157.981C39.9464 157.626 39.5467 157.125 39.2926 156.477C39.1512 156.117 39.0507 155.722 38.9879 155.293H49.8873V153.855C49.8873 152.525 49.5967 151.296 49.0157 150.169C48.4344 149.043 47.5947 148.129 46.4965 147.428L46.4966 147.428ZM39.3199 151.819C39.5923 151.172 39.9915 150.684 40.5183 150.356C41.0448 150.028 41.6895 149.863 42.4521 149.863C43.1964 149.863 43.8181 150.028 44.3176 150.356C44.8168 150.684 45.1891 151.154 45.4344 151.766C45.5657 152.095 45.6607 152.464 45.7217 152.871H39.0195C39.0876 152.486 39.1873 152.135 39.3199 151.819Z" fill="#FCFFFE"/>
<path d="M49.5332 142.038V145.179H51.3035V161.468H55.6884V142.038H49.5332Z" fill="#FCFFFE"/>
<path d="M76.3577 145.445C77.1747 145.445 77.7782 145.236 78.1688 144.819C78.5591 144.403 78.7544 143.875 78.7544 143.236C78.7544 142.58 78.5591 142.043 78.1688 141.625C77.7781 141.209 77.1747 141 76.3577 141C75.5407 141 74.9367 141.209 74.5465 141.625C74.1558 142.043 73.9609 142.58 73.9609 143.236C73.9609 143.875 74.1558 144.403 74.5465 144.819C74.9368 145.236 75.5407 145.445 76.3577 145.445Z" fill="#FCFFFE"/>
<path d="M72.6543 146.882V150.049H74.6426V161.468H79.0274V146.882H72.6543Z" fill="#FCFFFE"/>
<path d="M67.4833 146.882L64.7599 157.928H64.122L60.9446 146.882H56.4492L60.9174 161.468H67.8376L71.7063 146.882H67.4833Z" fill="#FCFFFE"/>
</g>
<defs>
<clipPath id="clip0_6100_21557">
<rect width="71" height="21" fill="white" transform="translate(8.02734 141)"/>
</clipPath>
</defs>
</svg>
