<svg width="715" height="162" viewBox="0 0 715 162" fill="none" xmlns="http://www.w3.org/2000/svg">
<g clip-path="url(#clip0_6070_9273)">
<path d="M227.738 73.3376C223.166 71.2776 217.884 69.9851 211.891 69.4596L205.596 68.8981C201.849 68.5991 199.151 67.5881 197.504 65.8636C195.855 64.1406 195.032 62.1546 195.032 59.9066C195.032 58.0347 195.481 56.3297 196.38 54.7927C197.279 53.2582 198.645 52.0582 200.482 51.1962C202.318 50.3357 204.585 49.9037 207.282 49.9037C210.129 49.9037 212.509 50.4097 214.419 51.4212C216.33 52.4322 217.771 53.7812 218.746 55.4672C219.719 57.1532 220.207 59.0076 220.207 61.0306H238.19C238.19 55.7112 236.953 51.0472 234.481 47.0382C232.009 43.0302 228.468 39.9012 223.86 37.6532C219.252 35.4052 213.725 34.2812 207.282 34.2812C201.138 34.2812 195.818 35.3122 191.323 37.3722C186.827 39.4342 183.323 42.3737 180.814 46.1952C178.303 50.0167 177.049 54.5877 177.049 59.9071C177.049 67.1756 179.483 73.0011 184.354 77.3841C189.224 81.7676 195.742 84.3345 203.91 85.0825L210.092 85.532C215.111 85.9815 218.746 86.9755 220.994 88.5105C223.242 90.047 224.365 92.126 224.365 94.7485C224.365 96.847 223.765 98.7015 222.567 100.312C221.368 101.924 219.606 103.177 217.285 104.077C214.962 104.976 212.076 105.425 208.63 105.425C204.809 105.425 201.699 104.883 199.302 103.795C196.903 102.71 195.124 101.266 193.963 99.4685C192.801 97.6705 192.221 95.723 192.221 93.6245H174.238C174.238 98.946 175.568 103.647 178.228 107.73C180.887 111.814 184.764 115.054 189.861 117.451C194.955 119.848 201.212 121.048 208.63 121.048C215.599 121.048 221.592 119.961 226.613 117.788C231.632 115.616 235.51 112.544 238.246 108.572C240.98 104.601 242.348 99.9935 242.348 94.748C242.348 89.6535 241.055 85.326 238.47 81.7666C235.886 78.2086 232.307 75.3991 227.738 73.3376Z" fill="#111211"/>
<path d="M284.044 55.2988H283.257C278.61 55.2988 274.752 56.4053 271.681 58.6143C268.815 60.6763 266.611 63.6448 265.05 67.4983V36.7539H246.955V118.8H265.05V83.2847C265.05 79.7632 266.079 76.9167 268.141 74.7427C270.201 72.5703 272.917 71.4833 276.289 71.4833C279.51 71.4833 282.095 72.4943 284.044 74.5177C285.992 76.5407 286.967 79.2377 286.967 82.6097V118.8H305.062V83.7337C305.062 74.4437 303.263 67.3808 299.667 62.5478C296.07 57.7153 290.861 55.2988 284.044 55.2988Z" fill="#111211"/>
<path d="M368.837 64.5147C365.915 61.5922 362.374 59.2882 358.216 57.6027C354.058 55.9167 349.318 55.0732 343.999 55.0732C338.829 55.0732 334.145 55.9167 329.95 57.6027C325.752 59.2882 322.175 61.5922 319.216 64.5147C316.255 67.4367 313.99 70.8277 312.416 74.6862C310.843 78.5461 310.056 82.6096 310.056 86.8806V89.4656C310.056 93.6631 310.804 97.6531 312.303 101.436C313.801 105.22 316.012 108.592 318.935 111.551C321.857 114.511 325.415 116.832 329.612 118.519C333.807 120.204 338.603 121.048 343.998 121.048C349.467 121.048 354.299 120.204 358.496 118.519C362.691 116.833 366.232 114.511 369.117 111.551C372.001 108.591 374.192 105.22 375.692 101.436C377.19 97.6531 377.939 93.6626 377.939 89.4656V86.8806C377.939 82.6096 377.153 78.5461 375.579 74.6862C374.006 70.8277 371.757 67.4367 368.836 64.5147H368.837ZM358.047 97.2206C356.848 99.918 355.087 102.017 352.765 103.515C350.442 105.014 347.52 105.762 343.999 105.762C340.628 105.762 337.742 105.014 335.345 103.515C332.946 102.017 331.147 99.918 329.95 97.2206C328.751 94.5226 328.152 91.5271 328.152 88.2291C328.152 84.7081 328.77 81.6171 330.006 78.9571C331.243 76.2982 333.058 74.1997 335.457 72.6632C337.854 71.1282 340.701 70.3592 343.999 70.3592C347.37 70.3592 350.237 71.1282 352.597 72.6632C354.957 74.1997 356.754 76.2982 357.991 78.9571C359.227 81.6171 359.845 84.7081 359.845 88.2291C359.845 91.5276 359.245 94.5231 358.047 97.2206Z" fill="#111211"/>
<path d="M442.404 57.2093H423.522L401.155 86.4957V36.7539H383.061V118.8H401.155V90.0277H407.112L426.444 118.8H446.787L422.167 83.5162L442.404 57.2093Z" fill="#111211"/>
<path d="M500.622 64.5147C497.699 61.5922 494.159 59.2882 490.001 57.6027C485.842 55.9167 481.102 55.0732 475.783 55.0732C470.613 55.0732 465.929 55.9167 461.734 57.6027C457.536 59.2882 453.959 61.5922 451 64.5147C448.039 67.4367 445.774 70.8277 444.2 74.6862C442.627 78.5461 441.84 82.6096 441.84 86.8806V89.4656C441.84 93.6631 442.588 97.6531 444.087 101.436C445.585 105.22 447.796 108.592 450.719 111.551C453.641 114.511 457.199 116.832 461.396 118.519C465.591 120.204 470.387 121.048 475.782 121.048C481.251 121.048 486.083 120.204 490.28 118.519C494.476 116.833 498.016 114.511 500.901 111.551C503.785 108.591 505.976 105.22 507.476 101.436C508.974 97.6531 509.724 93.6626 509.724 89.4656V86.8806C509.724 82.6096 508.937 78.5461 507.363 74.6862C505.79 70.8277 503.542 67.4367 500.62 64.5147H500.622ZM489.832 97.2206C488.633 99.918 486.871 102.017 484.55 103.515C482.227 105.014 479.304 105.762 475.783 105.762C472.412 105.762 469.526 105.014 467.129 103.515C464.73 102.017 462.931 99.918 461.734 97.2206C460.535 94.5226 459.936 91.5271 459.936 88.2291C459.936 84.7081 460.554 81.6171 461.79 78.9571C463.027 76.2982 464.842 74.1997 467.241 72.6632C469.638 71.1282 472.485 70.3592 475.783 70.3592C479.154 70.3592 482.021 71.1282 484.381 72.6632C486.741 74.1997 488.539 76.2982 489.775 78.9571C491.012 81.6171 491.63 84.7081 491.63 88.2291C491.63 91.5276 491.03 94.5231 489.832 97.2206Z" fill="#111211"/>
<path d="M574.463 64.2333C572.064 61.4238 569.161 59.2513 565.753 57.7148C562.343 56.1798 558.541 55.4108 554.346 55.4108C549.55 55.4108 545.279 56.4788 541.533 58.6138C538.194 60.5168 535.5 63.2593 533.441 66.8273V36.7539H515.346V118.8H529.732V105.403C530.128 106.449 530.574 107.453 531.08 108.404C533.253 112.489 536.25 115.58 540.071 117.676C543.893 119.773 548.313 120.823 553.334 120.823C557.753 120.823 561.724 120.037 565.247 118.463C568.768 116.89 571.783 114.661 574.294 111.776C576.804 108.892 578.715 105.52 580.026 101.661C581.336 97.8022 581.993 93.6247 581.993 89.1292V86.6567C581.993 82.1612 581.337 78.0022 580.026 74.1813C578.715 70.3598 576.86 67.0448 574.463 64.2343L574.463 64.2333ZM561.988 97.1642C560.713 99.9001 558.934 102.016 556.649 103.514C554.363 105.014 551.685 105.762 548.614 105.762C546.065 105.762 543.593 105.163 541.196 103.964C538.797 102.766 536.83 101.024 535.295 98.7371C533.759 96.4527 532.991 93.6992 532.991 90.4767V86.3182C532.991 83.0222 533.722 80.1757 535.183 77.7767C536.644 75.3792 538.572 73.5617 540.971 72.3258C543.368 71.0893 545.917 70.4713 548.614 70.4713C551.685 70.4713 554.363 71.1843 556.649 72.6068C558.934 74.0312 560.713 76.0547 561.988 78.6762C563.261 81.2997 563.898 84.3717 563.898 87.8927C563.898 91.3402 563.261 94.4307 561.988 97.1651V97.1642Z" fill="#111211"/>
<path d="M654.563 89.4656V86.8806C654.563 82.6096 653.776 78.5461 652.202 74.6862C650.629 70.8277 648.381 67.4367 645.46 64.5147C642.538 61.5927 638.997 59.2882 634.839 57.6027C630.68 55.9167 625.94 55.0732 620.621 55.0732C615.451 55.0732 610.767 55.9167 606.572 57.6027C602.374 59.2882 598.797 61.5922 595.838 64.5147C592.877 67.4367 590.612 70.8277 589.038 74.6862C587.465 78.5461 586.678 82.6096 586.678 86.8806V89.4656C586.678 93.6631 587.426 97.6531 588.925 101.436C590.423 105.22 592.634 108.592 595.557 111.551C598.479 114.511 602.037 116.832 606.234 118.519C610.429 120.204 615.225 121.048 620.62 121.048C626.089 121.048 630.921 120.204 635.118 118.519C639.314 116.833 642.854 114.511 645.739 111.551C648.623 108.591 650.814 105.22 652.314 101.436C653.812 97.6531 654.561 93.6626 654.561 89.4656H654.563ZM634.67 97.2206C633.471 99.918 631.709 102.017 629.388 103.515C627.065 105.014 624.142 105.762 620.621 105.762C617.25 105.762 614.364 105.014 611.967 103.515C609.568 102.017 607.769 99.918 606.572 97.2206C605.373 94.5226 604.774 91.5271 604.774 88.2291C604.774 84.7081 605.392 81.6171 606.628 78.9571C607.865 76.2982 609.68 74.1997 612.079 72.6632C614.476 71.1282 617.323 70.3592 620.621 70.3592C623.992 70.3592 626.859 71.1282 629.219 72.6632C631.579 74.1997 633.377 76.2982 634.613 78.9571C635.85 81.6171 636.468 84.7081 636.468 88.2291C636.468 91.5276 635.868 94.5231 634.67 97.2206Z" fill="#111211"/>
<path d="M694.882 87.1454L711.182 57.209H692.862L682.409 78.1139H680.611L669.484 57.209H649.928L667.38 87.4514L649.254 118.8H667.573L680.049 96.4338H681.847L695.11 118.8H714.666L694.882 87.1454Z" fill="#111211"/>
<path d="M113.897 0H67.6025C64.7845 0 62.5 2.28446 62.5 5.10248V44.8973C62.5 47.7153 64.7845 49.9998 67.6025 49.9998H113.897C116.715 49.9998 119 47.7153 119 44.8973V5.10248C119 2.28446 116.715 0 113.897 0Z" fill="#111211"/>
<path d="M51.3973 112H5.10248C2.28445 112 0 114.284 0 117.102V156.897C0 159.715 2.28445 162 5.10248 162H51.3973C54.2153 162 56.4998 159.715 56.4998 156.897V117.102C56.4998 114.284 54.2153 112 51.3973 112Z" fill="#111211"/>
<path d="M23.1414 1.49449L1.49449 23.1414C0.537497 24.0984 0 25.3959 0 26.7494V44.8973C0 47.7153 2.28449 49.9998 5.10248 49.9998H51.3978C54.2158 49.9998 56.5003 47.7153 56.5003 44.8973V5.10248C56.5003 2.28449 54.2158 0 51.3978 0H26.7499C25.3969 0 24.0984 0.537498 23.1414 1.49449Z" fill="#111211"/>
<path d="M23.1414 104.505L1.49449 82.8584C0.537497 81.9014 0 80.6039 0 79.2504V61.1025C0 58.2845 2.28449 56 5.10248 56H51.3978C54.2158 56 56.5003 58.2845 56.5003 61.1025V100.898C56.5003 103.716 54.2158 106 51.3978 106H26.7499C25.3969 106 24.0989 105.463 23.1419 104.506L23.1414 104.505Z" fill="#111211"/>
<path d="M95.8579 57.494L117.505 79.1409C118.462 80.0979 118.999 81.3954 118.999 82.7489V100.897C118.999 103.715 116.715 105.999 113.897 105.999H67.6015C64.7835 105.999 62.499 103.715 62.499 100.897V61.1015C62.499 58.2835 64.7835 55.999 67.6015 55.999H92.2494C93.6024 55.999 94.9004 56.5365 95.8574 57.4935L95.8579 57.494Z" fill="#111211"/>
<path d="M95.8579 160.505L117.505 138.858C118.462 137.901 118.999 136.604 118.999 135.25V117.102C118.999 114.284 116.715 112 113.897 112H67.6015C64.7835 112 62.499 114.284 62.499 117.102V156.898C62.499 159.716 64.7835 162 67.6015 162H92.2494C93.6024 162 94.9004 161.463 95.8574 160.506L95.8579 160.505Z" fill="#111211"/>
</g>
<defs>
<clipPath id="clip0_6070_9273">
<rect width="715" height="162" fill="white"/>
</clipPath>
</defs>
</svg>
