<svg width="134" height="163" viewBox="0 0 134 163" fill="none" xmlns="http://www.w3.org/2000/svg">
<path d="M14.0872 150.659C12.9691 150.155 11.6768 149.839 10.2104 149.711L8.67073 149.573C7.75386 149.5 7.09398 149.253 6.69109 148.831C6.28747 148.409 6.0862 147.924 6.0862 147.374C6.0862 146.916 6.19618 146.499 6.41614 146.123C6.6361 145.747 6.97007 145.454 7.41952 145.243C7.86861 145.033 8.42327 144.927 9.08279 144.927C9.77933 144.927 10.3615 145.051 10.8289 145.298C11.2963 145.546 11.649 145.876 11.8873 146.288C12.1252 146.7 12.2447 147.154 12.2447 147.649H16.6439C16.6439 146.348 16.3415 145.207 15.7366 144.226C15.1317 143.246 14.2658 142.48 13.1385 141.93C12.0112 141.38 10.6592 141.105 9.08315 141.105C7.58009 141.105 6.27867 141.358 5.17923 141.861C4.07944 142.366 3.22233 143.085 2.60864 144.02C1.99422 144.954 1.68774 146.073 1.68774 147.374C1.68774 149.152 2.2831 150.577 3.47491 151.649C4.666 152.722 6.2607 153.35 8.25867 153.532L9.77089 153.642C10.9986 153.752 11.888 153.995 12.4379 154.371C12.9878 154.747 13.2628 155.256 13.2628 155.897C13.2628 156.41 13.1157 156.864 12.8228 157.258C12.5292 157.652 12.0984 157.959 11.5306 158.179C10.9623 158.399 10.2563 158.509 9.41346 158.509C8.47863 158.509 7.71794 158.376 7.13138 158.11C6.54482 157.844 6.1093 157.491 5.82555 157.051C5.54107 156.612 5.39919 156.135 5.39919 155.622H1C1 156.923 1.32517 158.074 1.97625 159.072C2.6266 160.072 3.575 160.864 4.8218 161.45C6.06824 162.037 7.59879 162.33 9.41346 162.33C11.1181 162.33 12.5842 162.064 13.8127 161.533C15.0404 161.001 15.9888 160.25 16.6582 159.278C17.3269 158.307 17.6616 157.18 17.6616 155.896C17.6616 154.65 17.3456 153.592 16.7132 152.721C16.0808 151.851 15.2054 151.163 14.0876 150.659L14.0872 150.659Z" fill="#FCFFFE"/>
<path d="M27.8604 146.248H27.668C26.5312 146.248 25.5875 146.518 24.836 147.059C24.1351 147.563 23.5958 148.289 23.2138 149.232V141.711H18.7871V161.782H23.2138V153.094C23.2138 152.232 23.4657 151.536 23.9697 151.004C24.4738 150.472 25.1381 150.207 25.9629 150.207C26.7508 150.207 27.3831 150.454 27.8601 150.949C28.3367 151.444 28.575 152.104 28.575 152.929V161.782H33.0016V153.204C33.0016 150.931 32.5617 149.203 31.6819 148.021C30.802 146.839 29.5277 146.248 27.8601 146.248H27.8604Z" fill="#FCFFFE"/>
<path d="M48.6041 148.501C47.8892 147.786 47.023 147.222 46.006 146.81C44.9887 146.398 43.8292 146.191 42.5281 146.191C41.2633 146.191 40.1177 146.398 39.0912 146.81C38.0644 147.223 37.1893 147.786 36.4653 148.501C35.7412 149.216 35.1869 150.045 34.802 150.989C34.4171 151.933 34.2246 152.927 34.2246 153.972V154.604C34.2246 155.631 34.4075 156.607 34.7745 157.533C35.1411 158.459 35.6818 159.283 36.3967 160.007C37.1116 160.731 37.9819 161.3 39.0087 161.712C40.0348 162.125 41.2083 162.331 42.5281 162.331C43.8658 162.331 45.0481 162.124 46.0749 161.712C47.1011 161.3 47.9673 160.732 48.673 160.007C49.3784 159.283 49.9147 158.459 50.2817 157.533C50.6483 156.608 50.8316 155.631 50.8316 154.604V153.972C50.8316 152.927 50.6391 151.933 50.2542 150.989C49.8692 150.045 49.3193 149.216 48.6045 148.501H48.6041ZM45.9646 156.502C45.6713 157.162 45.2406 157.675 44.6723 158.041C44.1041 158.408 43.3892 158.591 42.5277 158.591C41.7029 158.591 40.9972 158.408 40.4106 158.041C39.8237 157.675 39.3838 157.162 39.0909 156.502C38.7972 155.842 38.6509 155.109 38.6509 154.302C38.6509 153.441 38.802 152.685 39.1044 152.034C39.4069 151.384 39.8508 150.87 40.4377 150.494C41.0243 150.119 41.7205 149.93 42.5274 149.93C43.3522 149.93 44.0531 150.118 44.6305 150.494C45.2079 150.87 45.6479 151.383 45.9503 152.034C46.2527 152.685 46.4038 153.441 46.4038 154.302C46.4038 155.109 46.2568 155.842 45.9639 156.502H45.9646Z" fill="#FCFFFE"/>
<path d="M66.601 146.715H61.9818L56.5107 153.879V141.711H52.084V161.782H56.5107V154.743H57.9675L62.6967 161.782H67.6733L61.6508 153.15L66.601 146.715Z" fill="#FCFFFE"/>
<path d="M80.8424 148.501C80.1275 147.786 79.2612 147.222 78.2443 146.81C77.227 146.398 76.0674 146.191 74.7664 146.191C73.5016 146.191 72.356 146.398 71.3295 146.81C70.3027 147.223 69.4276 147.786 68.7035 148.501C67.9795 149.216 67.4252 150.045 67.0403 150.989C66.6554 151.933 66.4629 152.927 66.4629 153.972V154.604C66.4629 155.631 66.6458 156.607 67.0128 157.533C67.3794 158.459 67.9201 159.283 68.635 160.007C69.3499 160.731 70.2202 161.3 71.247 161.712C72.2731 162.125 73.4466 162.331 74.7664 162.331C76.1041 162.331 77.2864 162.124 78.3132 161.712C79.3393 161.3 80.2056 160.732 80.9113 160.007C81.6166 159.283 82.153 158.459 82.52 157.533C82.8866 156.608 83.0699 155.631 83.0699 154.604V153.972C83.0699 152.927 82.8774 151.933 82.4925 150.989C82.1075 150.045 81.5576 149.216 80.8428 148.501H80.8424ZM78.2029 156.502C77.9096 157.162 77.4788 157.675 76.9106 158.041C76.3424 158.408 75.6275 158.591 74.766 158.591C73.9412 158.591 73.2354 158.408 72.6489 158.041C72.062 157.675 71.622 157.162 71.3291 156.502C71.0355 155.842 70.8892 155.109 70.8892 154.302C70.8892 153.441 71.0403 152.685 71.3427 152.034C71.6451 151.384 72.0891 150.87 72.676 150.494C73.2626 150.119 73.9587 149.93 74.7656 149.93C75.5905 149.93 76.2914 150.118 76.8688 150.494C77.4462 150.87 77.8861 151.383 78.1886 152.034C78.491 152.685 78.6421 153.441 78.6421 154.302C78.6421 155.109 78.4951 155.842 78.2021 156.502H78.2029Z" fill="#FCFFFE"/>
<path d="M98.9053 148.434C98.3184 147.746 97.6083 147.215 96.7747 146.839C95.9403 146.464 95.0102 146.275 93.9841 146.275C92.811 146.275 91.7662 146.537 90.8497 147.059C90.0329 147.524 89.3738 148.195 88.87 149.068V141.711H84.4434V161.782H87.9627V158.504C88.0599 158.76 88.1687 159.006 88.2927 159.238C88.8242 160.238 89.5574 160.994 90.4923 161.507C91.4271 162.019 92.5085 162.276 93.7367 162.276C94.8178 162.276 95.7892 162.084 96.6511 161.699C97.5126 161.314 98.2499 160.769 98.8643 160.063C99.4783 159.358 99.9458 158.533 100.267 157.589C100.587 156.645 100.748 155.623 100.748 154.523V153.918C100.748 152.819 100.587 151.801 100.267 150.866C99.9458 149.932 99.4919 149.121 98.9057 148.433L98.9053 148.434ZM95.8534 156.489C95.5414 157.159 95.1063 157.676 94.5476 158.043C93.9881 158.41 93.333 158.593 92.5819 158.593C91.9586 158.593 91.3538 158.446 90.7672 158.153C90.1803 157.86 89.6993 157.433 89.3239 156.874C88.9481 156.315 88.7601 155.641 88.7601 154.853V153.836C88.7601 153.03 88.9386 152.333 89.2964 151.746C89.6538 151.16 90.1256 150.715 90.7122 150.413C91.2984 150.11 91.922 149.959 92.5819 149.959C93.333 149.959 93.9885 150.134 94.5476 150.482C95.1066 150.83 95.5414 151.325 95.8534 151.967C96.165 152.609 96.3208 153.36 96.3208 154.221C96.3208 155.064 96.165 155.821 95.8534 156.489Z" fill="#FCFFFE"/>
<path d="M118.5 154.604V153.972C118.5 152.927 118.308 151.933 117.923 150.989C117.538 150.045 116.988 149.216 116.273 148.501C115.558 147.786 114.692 147.222 113.675 146.81C112.658 146.398 111.498 146.191 110.197 146.191C108.932 146.191 107.787 146.398 106.76 146.81C105.733 147.223 104.858 147.786 104.134 148.501C103.41 149.216 102.856 150.045 102.471 150.989C102.086 151.933 101.894 152.927 101.894 153.972V154.604C101.894 155.631 102.076 156.607 102.443 157.533C102.81 158.459 103.351 159.283 104.066 160.007C104.781 160.731 105.651 161.3 106.678 161.712C107.704 162.125 108.877 162.331 110.197 162.331C111.535 162.331 112.717 162.124 113.744 161.712C114.77 161.3 115.636 160.732 116.342 160.007C117.047 159.283 117.584 158.459 117.951 157.533C118.317 156.608 118.501 155.631 118.501 154.604H118.5ZM113.634 156.502C113.34 157.162 112.91 157.675 112.341 158.041C111.773 158.408 111.058 158.591 110.197 158.591C109.372 158.591 108.666 158.408 108.08 158.041C107.493 157.675 107.053 157.162 106.76 156.502C106.466 155.842 106.32 155.109 106.32 154.302C106.32 153.441 106.471 152.685 106.773 152.034C107.076 151.384 107.52 150.87 108.107 150.494C108.693 150.119 109.389 149.93 110.196 149.93C111.021 149.93 111.722 150.118 112.299 150.494C112.877 150.87 113.317 151.383 113.619 152.034C113.922 152.685 114.073 153.441 114.073 154.302C114.073 155.109 113.926 155.842 113.633 156.502H113.634Z" fill="#FCFFFE"/>
<path d="M128.363 154.038L132.351 146.715H127.869L125.312 151.829H124.872L122.15 146.715H117.366L121.635 154.113L117.201 161.781H121.683L124.734 156.31H125.174L128.419 161.781H133.203L128.363 154.038Z" fill="#FCFFFE"/>
<path d="M106.865 0.333008H72.9218C70.8556 0.333008 69.1807 2.00796 69.1807 4.07414V33.2518C69.1807 35.318 70.8556 36.993 72.9218 36.993H106.865C108.931 36.993 110.606 35.318 110.606 33.2518V4.07414C110.606 2.00796 108.931 0.333008 106.865 0.333008Z" fill="#FCFFFE"/>
<path d="M61.0401 82.4512H27.0966C25.0304 82.4512 23.3555 84.1262 23.3555 86.1923V115.37C23.3555 117.436 25.0304 119.111 27.0966 119.111H61.0401C63.1062 119.111 64.7812 117.436 64.7812 115.37V86.1923C64.7812 84.1262 63.1062 82.4512 61.0401 82.4512Z" fill="#FCFFFE"/>
<path d="M40.3228 1.42816L24.4512 17.2997C23.7496 18.0014 23.3555 18.9527 23.3555 19.9451V33.2512C23.3555 35.3174 25.0305 36.9923 27.0966 36.9923H61.0404C63.1066 36.9923 64.7816 35.3174 64.7816 33.2512V4.07316C64.7816 2.00701 63.1066 0.332031 61.0404 0.332031H42.9685C41.9765 0.332031 41.0248 0.726131 40.3232 1.4278L40.3228 1.42816Z" fill="#FCFFFE"/>
<path d="M40.3228 76.9548L24.4512 61.0833C23.7496 60.3816 23.3555 59.4302 23.3555 58.4379V45.1318C23.3555 43.0656 25.0305 41.3906 27.0966 41.3906H61.0404C63.1066 41.3906 64.7816 43.0656 64.7816 45.1318V74.3098C64.7816 76.3759 63.1066 78.0509 61.0404 78.0509H42.9685C41.9765 78.0509 41.0248 77.6568 40.3232 76.9552L40.3228 76.9548Z" fill="#FCFFFE"/>
<path d="M93.6385 42.4868L109.51 58.3583C110.212 59.06 110.606 60.0113 110.606 61.0037V74.3098C110.606 76.3759 108.931 78.0509 106.865 78.0509H72.9208C70.8547 78.0509 69.1797 76.3759 69.1797 74.3098V45.1318C69.1797 43.0656 70.8547 41.3906 72.9208 41.3906H90.9927C91.9847 41.3906 92.9364 41.7847 93.6381 42.4864L93.6385 42.4868Z" fill="#FCFFFE"/>
<path d="M93.6385 118.015L109.51 102.144C110.212 101.442 110.606 100.491 110.606 99.4984V86.1923C110.606 84.1262 108.931 82.4512 106.865 82.4512H72.9208C70.8547 82.4512 69.1797 84.1262 69.1797 86.1923V115.37C69.1797 117.436 70.8547 119.111 72.9208 119.111H90.9927C91.9847 119.111 92.9364 118.717 93.6381 118.016L93.6385 118.015Z" fill="#FCFFFE"/>
</svg>
