<svg width="715" height="162" viewBox="0 0 715 162" fill="none" xmlns="http://www.w3.org/2000/svg">
<g clip-path="url(#clip0_6070_9443)">
<path d="M189.035 128.531C189.892 128.531 190.525 128.312 190.932 127.873C191.34 127.434 191.544 126.869 191.544 126.179C191.544 125.469 191.34 124.893 190.932 124.454C190.525 124.015 189.892 123.796 189.035 123.796C188.199 123.796 187.566 124.015 187.138 124.454C186.71 124.893 186.495 125.458 186.495 126.148C186.495 126.859 186.71 127.433 187.138 127.873C187.566 128.312 188.199 128.531 189.035 128.531Z" fill="#FCFFFE"/>
<path d="M188.815 130.758L181.038 153.653H185.491L187.499 147.6H197.474L199.539 153.653H204.149L196.121 130.758H188.815ZM188.758 143.805L191.847 134.49H193.002L196.18 143.805H188.758Z" fill="#FCFFFE"/>
<path d="M195.934 128.531C196.791 128.531 197.423 128.312 197.831 127.873C198.238 127.434 198.442 126.869 198.442 126.179C198.442 125.469 198.239 124.893 197.831 124.454C197.423 124.015 196.791 123.796 195.934 123.796C195.097 123.796 194.465 124.015 194.036 124.454C193.608 124.893 193.394 125.458 193.394 126.148C193.394 126.859 193.608 127.433 194.036 127.873C194.464 128.312 195.097 128.531 195.934 128.531Z" fill="#FCFFFE"/>
<path d="M211.142 138.301C210.352 139.258 209.862 140.548 209.669 142.169V136.624H206.22V153.654H210.579V144.81C210.579 143.325 210.981 142.186 211.786 141.391C212.59 140.597 213.725 140.199 215.188 140.199H216.38V136.404H215.753C213.725 136.404 212.188 137.037 211.143 138.302L211.142 138.301Z" fill="#FCFFFE"/>
<path d="M220.737 134.584C221.594 134.584 222.221 134.365 222.619 133.926C223.016 133.487 223.214 132.912 223.214 132.201C223.214 131.511 223.016 130.946 222.619 130.507C222.221 130.068 221.594 129.849 220.737 129.849C219.88 129.849 219.248 130.068 218.84 130.507C218.432 130.946 218.229 131.511 218.229 132.201C218.229 132.912 218.432 133.486 218.84 133.926C219.247 134.365 219.88 134.584 220.737 134.584Z" fill="#FCFFFE"/>
<path d="M216.755 136.623V139.885H219.138V153.653H223.497V139.885V136.623H219.138H216.755Z" fill="#FCFFFE"/>
<path d="M250.872 136.984C249.994 136.388 248.896 136.09 247.579 136.09H247.391C246.095 136.09 245.013 136.388 244.145 136.984C243.278 137.58 242.619 138.458 242.17 139.618C242.127 139.729 242.096 139.854 242.058 139.97C242.021 139.854 241.991 139.729 241.951 139.618C241.522 138.458 240.874 137.58 240.007 136.984C239.139 136.388 238.046 136.09 236.73 136.09H236.541C235.245 136.09 234.163 136.388 233.296 136.984C232.428 137.58 231.775 138.458 231.336 139.618C231.196 139.988 231.086 140.397 230.991 140.823V136.623H227.542V153.653H231.901V143.68C231.901 142.551 232.203 141.657 232.81 140.998C233.416 140.34 234.221 140.01 235.225 140.01C236.207 140.01 236.976 140.329 237.529 140.967C238.083 141.605 238.36 142.467 238.36 143.554V153.653H242.719V143.679C242.719 142.55 243.022 141.657 243.628 140.998C244.234 140.339 245.039 140.01 246.043 140.01C247.025 140.01 247.793 140.329 248.347 140.966C248.901 141.604 249.178 142.467 249.178 143.554V153.652H253.537V143.93C253.537 142.216 253.313 140.778 252.863 139.617C252.413 138.457 251.749 137.579 250.872 136.983V136.984Z" fill="#FCFFFE"/>
<path d="M267.475 137.062C266.316 136.603 264.857 136.372 263.101 136.372C262.537 136.372 261.93 136.378 261.282 136.388C260.634 136.398 260.013 136.425 259.417 136.466C258.821 136.508 258.282 136.55 257.802 136.592V140.293C258.387 140.251 259.051 140.214 259.793 140.183C260.534 140.151 261.272 140.125 262.004 140.104C262.736 140.083 263.363 140.073 263.885 140.073C264.868 140.073 265.6 140.319 266.081 140.81C266.562 141.301 266.802 142.028 266.802 142.989V143.146H263.353C261.847 143.146 260.53 143.345 259.402 143.742C258.273 144.139 257.405 144.735 256.799 145.53C256.193 146.324 255.89 147.349 255.89 148.603C255.89 149.753 256.146 150.736 256.658 151.551C257.17 152.367 257.886 152.994 258.806 153.433C259.726 153.872 260.802 154.092 262.036 154.092C263.228 154.092 264.236 153.877 265.062 153.449C265.888 153.021 266.536 152.398 267.006 151.583C267.217 151.216 267.386 150.806 267.524 150.364V153.653H271.004V143.115C271.004 141.526 270.706 140.235 270.111 139.241C269.515 138.249 268.637 137.522 267.476 137.062L267.475 137.062ZM264.967 150.658C264.455 150.877 263.895 150.987 263.29 150.987C262.286 150.987 261.518 150.747 260.985 150.266C260.452 149.785 260.185 149.158 260.185 148.384C260.185 147.611 260.452 146.984 260.985 146.502C261.518 146.022 262.287 145.781 263.29 145.781H266.802V147.349C266.759 148.269 266.572 148.995 266.237 149.528C265.903 150.061 265.479 150.438 264.967 150.657V150.658Z" fill="#FCFFFE"/>
<path d="M273.136 136.623V139.885H275.519V153.653H279.878V139.885V136.623H275.519H273.136Z" fill="#FCFFFE"/>
<path d="M277.118 134.584C277.975 134.584 278.602 134.365 279 133.926C279.397 133.487 279.595 132.912 279.595 132.201C279.595 131.511 279.397 130.946 279 130.507C278.602 130.068 277.975 129.849 277.118 129.849C276.261 129.849 275.629 130.068 275.221 130.507C274.813 130.946 274.609 131.511 274.609 132.201C274.609 132.912 274.813 133.486 275.221 133.926C275.628 134.365 276.261 134.584 277.118 134.584Z" fill="#FCFFFE"/>
<path d="M294.585 146.659C294.585 147.767 294.265 148.645 293.628 149.293C292.99 149.941 292.17 150.265 291.166 150.265C290.162 150.265 289.368 149.957 288.783 149.34C288.198 148.724 287.905 147.892 287.905 146.847V136.591H283.546V146.47C283.546 149.042 284.079 150.971 285.145 152.257C286.211 153.543 287.737 154.186 289.723 154.186H289.911C291.229 154.186 292.321 153.898 293.188 153.323C294.056 152.749 294.715 151.886 295.164 150.736C295.295 150.402 295.401 150.035 295.493 149.652V153.652H298.943V136.591H294.584V146.658L294.585 146.659Z" fill="#FCFFFE"/>
<path d="M314.888 144.997C313.749 144.099 312.176 143.544 310.169 143.335L308.664 143.178C307.743 143.074 307.08 142.876 306.673 142.582C306.265 142.29 306.061 141.872 306.061 141.328C306.061 140.763 306.312 140.304 306.814 139.948C307.316 139.593 308.026 139.415 308.946 139.415C309.971 139.415 310.749 139.624 311.282 140.042C311.815 140.46 312.113 140.972 312.176 141.578H316.096C316.033 139.78 315.354 138.422 314.058 137.501C312.761 136.581 311.068 136.121 308.978 136.121C307.618 136.121 306.422 136.325 305.387 136.733C304.352 137.14 303.542 137.742 302.957 138.536C302.372 139.331 302.079 140.314 302.079 141.484C302.079 142.948 302.591 144.124 303.616 145.013C304.639 145.902 306.113 146.44 308.037 146.628L309.511 146.784C310.661 146.91 311.471 147.14 311.941 147.474C312.411 147.809 312.646 148.248 312.646 148.792C312.646 149.44 312.333 149.952 311.705 150.328C311.078 150.705 310.253 150.893 309.228 150.893C307.974 150.893 307.054 150.653 306.469 150.172C305.883 149.691 305.559 149.158 305.497 148.572H301.546C301.629 150.329 302.334 151.704 303.662 152.697C304.989 153.69 306.824 154.186 309.166 154.186C310.671 154.186 311.977 153.961 313.085 153.512C314.193 153.062 315.055 152.419 315.672 151.583C316.289 150.747 316.598 149.764 316.598 148.635C316.598 147.109 316.027 145.896 314.888 144.997Z" fill="#FCFFFE"/>
<path d="M331.289 137.235C330.045 136.43 328.502 136.027 326.663 136.027C325.262 136.027 324.024 136.273 322.947 136.764C321.87 137.256 320.977 137.914 320.266 138.74C319.555 139.566 319.017 140.507 318.651 141.563C318.286 142.619 318.103 143.711 318.103 144.84V145.436C318.103 146.524 318.285 147.59 318.651 148.635C319.017 149.681 319.561 150.627 320.282 151.474C321.003 152.32 321.913 152.995 323.01 153.497C324.108 153.998 325.388 154.249 326.852 154.249C328.253 154.249 329.502 154.009 330.599 153.528C331.696 153.047 332.601 152.367 333.312 151.489C334.022 150.611 334.504 149.587 334.754 148.416H330.709C330.521 149.043 330.092 149.571 329.423 149.999C328.754 150.428 327.897 150.642 326.852 150.642C325.785 150.642 324.908 150.407 324.218 149.936C323.528 149.466 323.015 148.818 322.681 147.992C322.463 147.454 322.324 146.86 322.248 146.22H335.036V144.62C335.036 143.115 334.723 141.709 334.096 140.402C333.468 139.095 332.532 138.039 331.289 137.234L331.289 137.235ZM324.217 140.308C324.886 139.859 325.701 139.634 326.663 139.634C327.625 139.634 328.419 139.843 329.046 140.261C329.674 140.679 330.149 141.275 330.473 142.048C330.657 142.487 330.783 142.983 330.862 143.522H322.316C322.402 143.044 322.528 142.604 322.697 142.205C323.041 141.39 323.548 140.757 324.218 140.308L324.217 140.308Z" fill="#FCFFFE"/>
<path d="M350.275 139.045C349.715 138.146 349.01 137.439 348.143 136.952C347.118 136.377 345.937 136.089 344.599 136.089C343.386 136.089 342.289 136.314 341.307 136.764C340.324 137.213 339.477 137.835 338.766 138.63C338.056 139.425 337.512 140.355 337.136 141.421C336.759 142.488 336.571 143.628 336.571 144.84V145.498C336.571 146.732 336.769 147.882 337.167 148.948C337.564 150.015 338.128 150.94 338.86 151.724C339.592 152.508 340.454 153.119 341.448 153.558C342.44 153.997 343.543 154.217 344.756 154.217C346.073 154.217 347.259 153.929 348.315 153.354C349.37 152.779 350.222 151.911 350.87 150.751C350.988 150.54 351.085 150.309 351.184 150.08V153.652H354.665V130.757H350.275V139.044L350.275 139.045ZM350.401 145.655C350.401 146.659 350.186 147.532 349.758 148.274C349.329 149.017 348.765 149.581 348.064 149.968C347.364 150.355 346.585 150.548 345.728 150.548C344.808 150.548 343.988 150.328 343.266 149.889C342.545 149.45 341.975 148.828 341.558 148.023C341.139 147.219 340.93 146.272 340.93 145.185C340.93 144.097 341.134 143.152 341.542 142.347C341.949 141.542 342.514 140.909 343.235 140.449C343.956 139.99 344.787 139.759 345.728 139.759C346.543 139.759 347.306 139.942 348.017 140.308C348.727 140.674 349.303 141.202 349.742 141.892C350.181 142.581 350.4 143.418 350.4 144.401L350.401 145.655Z" fill="#FCFFFE"/>
<path d="M369.245 130.758H364.793V153.653H368.619H369.245H378.496V149.732H369.245V130.758Z" fill="#FCFFFE"/>
<path d="M395.634 138.677C394.829 137.852 393.851 137.203 392.701 136.733C391.552 136.262 390.255 136.027 388.813 136.027C387.371 136.027 386.07 136.262 384.909 136.733C383.749 137.203 382.766 137.852 381.962 138.677C381.157 139.503 380.545 140.444 380.127 141.5C379.708 142.556 379.5 143.669 379.5 144.84V145.498C379.5 146.648 379.703 147.746 380.111 148.791C380.519 149.837 381.12 150.767 381.915 151.583C382.709 152.398 383.681 153.046 384.831 153.527C385.981 154.008 387.308 154.249 388.813 154.249C390.297 154.249 391.615 154.008 392.764 153.527C393.913 153.046 394.886 152.398 395.681 151.583C396.475 150.767 397.076 149.837 397.483 148.791C397.891 147.746 398.095 146.648 398.095 145.498V144.84C398.095 143.669 397.886 142.556 397.468 141.5C397.049 140.444 396.437 139.503 395.634 138.677ZM393.156 147.897C392.769 148.702 392.21 149.34 391.479 149.811C390.747 150.281 389.858 150.516 388.813 150.516C387.747 150.516 386.848 150.281 386.116 149.811C385.384 149.34 384.825 148.703 384.439 147.897C384.052 147.093 383.859 146.178 383.859 145.153C383.859 144.129 384.057 143.209 384.454 142.393C384.851 141.578 385.421 140.935 386.163 140.465C386.905 139.994 387.789 139.759 388.813 139.759C389.837 139.759 390.715 139.994 391.448 140.465C392.179 140.935 392.743 141.578 393.141 142.393C393.538 143.209 393.737 144.129 393.737 145.153C393.737 146.177 393.543 147.093 393.156 147.897H393.156Z" fill="#FCFFFE"/>
<path d="M414.119 140.104C414.052 139.947 413.992 139.782 413.916 139.634C413.32 138.484 412.504 137.606 411.47 136.999C410.435 136.393 409.227 136.09 407.848 136.09C406.656 136.09 405.568 136.299 404.587 136.717C403.604 137.135 402.757 137.731 402.046 138.504C401.336 139.278 400.787 140.182 400.4 141.217C400.013 142.252 399.82 143.366 399.82 144.557V145.247C399.82 146.439 400.003 147.552 400.369 148.588C400.735 149.623 401.257 150.532 401.937 151.316C402.616 152.1 403.437 152.707 404.399 153.135C405.36 153.564 406.426 153.778 407.597 153.778C408.914 153.778 410.074 153.491 411.078 152.916C412.081 152.341 412.876 151.51 413.461 150.423V151.897C413.461 153.005 413.263 153.92 412.866 154.641C412.468 155.362 411.835 155.89 410.969 156.225C410.101 156.559 408.956 156.726 407.535 156.726C406.803 156.726 406.003 156.69 405.136 156.617C404.269 156.543 403.469 156.465 402.737 156.381V160.051C403.448 160.155 404.226 160.239 405.074 160.302C405.92 160.364 406.751 160.396 407.566 160.396C409.887 160.396 411.784 160.098 413.258 159.502C414.732 158.906 415.824 157.965 416.535 156.679C417.245 155.393 417.601 153.715 417.601 151.645V136.623H414.12V140.104H414.119ZM413.398 145.279C413.398 146.282 413.194 147.14 412.786 147.851C412.379 148.562 411.83 149.105 411.14 149.482C410.45 149.858 409.687 150.046 408.851 150.046C407.931 150.046 407.121 149.838 406.421 149.419C405.72 149.001 405.171 148.405 404.775 147.631C404.377 146.858 404.179 145.949 404.179 144.903C404.179 143.857 404.377 142.943 404.775 142.159C405.171 141.375 405.72 140.769 406.421 140.34C407.121 139.912 407.931 139.697 408.851 139.697C409.645 139.697 410.388 139.869 411.078 140.214C411.767 140.559 412.326 141.067 412.755 141.735C413.183 142.405 413.398 143.23 413.398 144.213V145.279L413.398 145.279Z" fill="#FCFFFE"/>
<path d="M436.399 138.677C435.594 137.852 434.616 137.203 433.467 136.733C432.317 136.262 431.021 136.027 429.579 136.027C428.136 136.027 426.835 136.262 425.675 136.733C424.514 137.203 423.532 137.852 422.727 138.677C421.922 139.503 421.311 140.444 420.893 141.5C420.474 142.556 420.266 143.669 420.266 144.84V145.498C420.266 146.648 420.469 147.746 420.877 148.791C421.284 149.837 421.886 150.767 422.68 151.583C423.475 152.398 424.447 153.046 425.596 153.527C426.746 154.008 428.073 154.249 429.579 154.249C431.063 154.249 432.38 154.008 433.53 153.527C434.679 153.046 435.651 152.398 436.446 151.583C437.241 150.767 437.841 149.837 438.249 148.791C438.656 147.746 438.861 146.648 438.861 145.498V144.84C438.861 143.669 438.651 142.556 438.233 141.5C437.815 140.444 437.203 139.503 436.399 138.677ZM433.922 147.897C433.535 148.702 432.975 149.34 432.244 149.811C431.512 150.281 430.624 150.516 429.579 150.516C428.513 150.516 427.614 150.281 426.882 149.811C426.15 149.34 425.591 148.703 425.204 147.897C424.817 147.093 424.624 146.178 424.624 145.153C424.624 144.129 424.822 143.209 425.22 142.393C425.617 141.578 426.187 140.935 426.929 140.465C427.67 139.994 428.554 139.759 429.579 139.759C430.603 139.759 431.481 139.994 432.213 140.465C432.945 140.935 433.509 141.578 433.907 142.393C434.303 143.209 434.502 144.129 434.502 145.153C434.502 146.177 434.308 147.093 433.922 147.897H433.922Z" fill="#FCFFFE"/>
<path d="M454.883 140.104C454.815 139.947 454.756 139.782 454.679 139.634C454.083 138.484 453.268 137.606 452.233 136.999C451.198 136.393 449.991 136.09 448.611 136.09C447.419 136.09 446.332 136.299 445.35 136.717C444.367 137.135 443.521 137.731 442.81 138.504C442.099 139.278 441.55 140.182 441.164 141.217C440.777 142.252 440.584 143.366 440.584 144.557V145.247C440.584 146.439 440.766 147.552 441.133 148.588C441.498 149.623 442.021 150.532 442.701 151.316C443.38 152.1 444.201 152.707 445.163 153.135C446.124 153.564 447.19 153.778 448.361 153.778C449.678 153.778 450.838 153.491 451.842 152.916C452.845 152.341 453.64 151.51 454.225 150.423V151.897C454.225 153.005 454.026 153.92 453.63 154.641C453.232 155.362 452.599 155.89 451.732 156.225C450.865 156.559 449.72 156.726 448.299 156.726C447.566 156.726 446.767 156.69 445.9 156.617C445.032 156.543 444.232 156.465 443.501 156.381V160.051C444.211 160.155 444.99 160.239 445.837 160.302C446.684 160.364 447.514 160.396 448.33 160.396C450.65 160.396 452.548 160.098 454.021 159.502C455.495 158.906 456.588 157.965 457.298 156.679C458.009 155.393 458.365 153.715 458.365 151.645V136.623H454.884V140.104H454.883ZM454.162 145.279C454.162 146.282 453.958 147.14 453.55 147.851C453.143 148.562 452.594 149.105 451.904 149.482C451.214 149.858 450.45 150.046 449.615 150.046C448.695 150.046 447.885 149.838 447.184 149.419C446.484 149.001 445.935 148.405 445.538 147.631C445.141 146.858 444.943 145.949 444.943 144.903C444.943 143.857 445.141 142.943 445.538 142.159C445.935 141.375 446.484 140.769 447.184 140.34C447.885 139.912 448.695 139.697 449.615 139.697C450.409 139.697 451.151 139.869 451.841 140.214C452.531 140.559 453.09 141.067 453.519 141.735C453.946 142.405 454.161 143.23 454.161 144.213V145.279L454.162 145.279Z" fill="#FCFFFE"/>
<path d="M475.031 139.242C474.435 138.249 473.557 137.522 472.396 137.062C471.236 136.603 469.778 136.372 468.022 136.372C467.458 136.372 466.851 136.378 466.203 136.388C465.555 136.398 464.933 136.425 464.338 136.466C463.742 136.508 463.203 136.55 462.723 136.592V140.293C463.308 140.251 463.972 140.214 464.714 140.183C465.455 140.151 466.193 140.125 466.925 140.104C467.656 140.083 468.283 140.073 468.806 140.073C469.789 140.073 470.521 140.319 471.001 140.81C471.482 141.301 471.723 142.028 471.723 142.989V143.146H468.273C466.768 143.146 465.451 143.345 464.322 143.742C463.194 144.139 462.326 144.735 461.72 145.53C461.113 146.324 460.811 147.349 460.811 148.603C460.811 149.753 461.067 150.736 461.579 151.551C462.091 152.367 462.807 152.994 463.727 153.433C464.647 153.872 465.723 154.092 466.957 154.092C468.148 154.092 469.157 153.877 469.983 153.449C470.809 153.021 471.457 152.398 471.927 151.583C472.138 151.216 472.307 150.806 472.445 150.364V153.653H475.925V143.115C475.925 141.526 475.627 140.235 475.032 139.241L475.031 139.242ZM469.888 150.658C469.376 150.877 468.816 150.987 468.211 150.987C467.207 150.987 466.439 150.747 465.906 150.266C465.373 149.785 465.106 149.158 465.106 148.384C465.106 147.611 465.373 146.984 465.906 146.502C466.439 146.022 467.208 145.781 468.211 145.781H471.723V147.349C471.68 148.269 471.492 148.995 471.158 149.528C470.824 150.061 470.4 150.438 469.888 150.657V150.658Z" fill="#FCFFFE"/>
<path d="M113.88 0H67.592C64.7744 0 62.4902 2.28447 62.4902 5.1025V44.8975C62.4902 47.7155 64.7744 50 67.592 50H113.88C116.698 50 118.982 47.7155 118.982 44.8975V5.1025C118.982 2.28447 116.698 0 113.88 0Z" fill="#FCFFFE"/>
<path d="M51.3897 112H5.10172C2.28412 112 0 114.284 0 117.102V156.897C0 159.716 2.28412 162 5.10172 162H51.3897C54.2073 162 56.4914 159.716 56.4914 156.897V117.102C56.4914 114.284 54.2073 112 51.3897 112Z" fill="#FCFFFE"/>
<path d="M23.138 1.4945L1.49427 23.1415C0.537418 24.0985 0 25.396 0 26.7495V44.8975C0 47.7155 2.28415 50 5.10172 50H51.3902C54.2078 50 56.4919 47.7155 56.4919 44.8975V5.1025C56.4919 2.2845 54.2078 0 51.3902 0H26.7459C25.3931 0 24.0948 0.5375 23.138 1.4945Z" fill="#FCFFFE"/>
<path d="M23.138 104.505L1.49427 82.8585C0.537418 81.9015 0 80.604 0 79.2505V61.1025C0 58.2845 2.28415 56 5.10172 56H51.3902C54.2078 56 56.4919 58.2845 56.4919 61.1025V100.898C56.4919 103.716 54.2078 106 51.3902 106H26.7459C25.3931 106 24.0953 105.463 23.1385 104.506L23.138 104.505Z" fill="#FCFFFE"/>
<path d="M95.8442 57.495L117.488 79.142C118.445 80.099 118.982 81.3965 118.982 82.75V100.898C118.982 103.716 116.698 106 113.88 106H67.592C64.7744 106 62.4902 103.716 62.4902 100.898V61.1025C62.4902 58.2845 64.7744 56 67.592 56H92.2362C93.589 56 94.8868 56.5375 95.8437 57.4945L95.8442 57.495Z" fill="#FCFFFE"/>
<path d="M95.8442 160.505L117.488 138.858C118.445 137.901 118.982 136.604 118.982 135.25V117.102C118.982 114.285 116.698 112 113.88 112H67.592C64.7744 112 62.4902 114.285 62.4902 117.102V156.898C62.4902 159.716 64.7744 162 67.592 162H92.2362C93.589 162 94.8868 161.463 95.8437 160.506L95.8442 160.505Z" fill="#FCFFFE"/>
<path d="M227.703 60.8075C223.132 58.7475 217.851 57.455 211.859 56.9295L205.565 56.368C201.818 56.069 199.121 55.058 197.474 53.3335C195.825 51.6105 195.002 49.6245 195.002 47.3765C195.002 45.5045 195.451 43.7995 196.351 42.2625C197.249 40.728 198.615 39.528 200.452 38.666C202.287 37.8055 204.554 37.3735 207.251 37.3735C210.097 37.3735 212.477 37.8795 214.387 38.891C216.297 39.902 217.738 41.251 218.713 42.937C219.686 44.623 220.174 46.4775 220.174 48.5005H238.154C238.154 43.181 236.918 38.517 234.446 34.508C231.974 30.5 228.434 27.371 223.826 25.123C219.219 22.875 213.693 21.751 207.251 21.751C201.107 21.751 195.789 22.782 191.294 24.842C186.799 26.904 183.296 29.8435 180.786 33.665C178.276 37.4865 177.022 42.0575 177.022 47.377C177.022 54.6455 179.456 60.471 184.326 64.854C189.195 69.2375 195.713 71.8045 203.879 72.5525L210.06 73.002C215.078 73.4515 218.713 74.4455 220.96 75.9805C223.208 77.517 224.331 79.596 224.331 82.2185C224.331 84.317 223.731 86.1715 222.534 87.782C221.334 89.394 219.573 90.6475 217.252 91.547C214.929 92.4459 212.044 92.8955 208.599 92.8955C204.778 92.8955 201.669 92.353 199.272 91.2655C196.873 90.1805 195.095 88.7365 193.934 86.9385C192.772 85.1405 192.192 83.193 192.192 81.0945H174.212C174.212 86.416 175.541 91.117 178.201 95.2C180.859 99.2844 184.736 102.524 189.832 104.921C194.926 107.318 201.182 108.518 208.599 108.518C215.566 108.518 221.559 107.431 226.579 105.258C231.597 103.086 235.474 100.014 238.21 96.042C240.944 92.0714 242.312 87.4635 242.312 82.218C242.312 77.1235 241.019 72.796 238.435 69.2365C235.85 65.6785 232.272 62.869 227.703 60.8075H227.703Z" fill="#FCFFFE"/>
<path d="M284.001 42.7686H283.215C278.569 42.7686 274.711 43.8751 271.64 46.0841C268.775 48.1461 266.571 51.1146 265.01 54.9681V24.2236H246.918V106.27H265.01V70.7546C265.01 67.2331 266.039 64.3866 268.101 62.2126C270.16 60.0401 272.877 58.9531 276.248 58.9531C279.468 58.9531 282.053 59.9641 284.002 61.9876C285.95 64.0106 286.924 66.7076 286.924 70.0796V106.27H305.016V71.2036C305.016 61.9136 303.218 54.8506 299.622 50.0176C296.026 45.1851 290.818 42.7686 284.002 42.7686H284.001Z" fill="#FCFFFE"/>
<path d="M368.782 51.9845C365.86 49.062 362.32 46.758 358.162 45.0725C354.005 43.3865 349.265 42.543 343.947 42.543C338.777 42.543 334.095 43.3865 329.9 45.0725C325.703 46.758 322.126 49.062 319.167 51.9845C316.207 54.9065 313.942 58.2975 312.369 62.156C310.796 66.016 310.009 70.0795 310.009 74.3505V76.9355C310.009 81.133 310.757 85.123 312.256 88.9055C313.754 92.6895 315.964 96.0615 318.886 99.0205C321.808 101.981 325.365 104.302 329.562 105.989C333.757 107.674 338.551 108.518 343.946 108.518C349.414 108.518 354.246 107.674 358.442 105.989C362.637 104.303 366.177 101.981 369.061 99.0205C371.945 96.061 374.136 92.6895 375.635 88.9055C377.133 85.123 377.882 81.1325 377.882 76.9355V74.3505C377.882 70.0795 377.096 66.016 375.522 62.156C373.95 58.2975 371.701 54.9065 368.78 51.9845H368.782ZM357.993 84.6905C356.795 87.388 355.033 89.4865 352.712 90.9844C350.39 92.4839 347.468 93.232 343.947 93.232C340.576 93.232 337.691 92.4839 335.294 90.9844C332.895 89.4865 331.097 87.388 329.9 84.6905C328.701 81.9925 328.102 78.997 328.102 75.699C328.102 72.178 328.72 69.087 329.956 66.427C331.193 63.768 333.008 61.6695 335.406 60.133C337.803 58.598 340.649 57.829 343.947 57.829C347.318 57.829 350.184 58.598 352.543 60.133C354.903 61.6695 356.701 63.768 357.937 66.427C359.173 69.087 359.791 72.178 359.791 75.699C359.791 78.9975 359.191 81.993 357.993 84.6905Z" fill="#FCFFFE"/>
<path d="M442.337 44.6791H423.458L401.095 73.9656V24.2236H383.003V106.27H401.095V77.4976H407.051L426.38 106.27H446.72L422.104 70.9861L442.337 44.6791Z" fill="#FCFFFE"/>
<path d="M500.547 51.9845C497.625 49.062 494.085 46.758 489.928 45.0725C485.77 43.3865 481.031 42.543 475.712 42.543C470.543 42.543 465.86 43.3865 461.665 45.0725C457.469 46.758 453.892 49.062 450.933 51.9845C447.973 54.9065 445.708 58.2975 444.135 62.156C442.561 66.016 441.774 70.0795 441.774 74.3505V76.9355C441.774 81.133 442.522 85.123 444.022 88.9055C445.519 92.6895 447.73 96.0615 450.652 99.0205C453.574 101.981 457.131 104.302 461.327 105.989C465.522 107.674 470.317 108.518 475.711 108.518C481.179 108.518 486.011 107.674 490.208 105.989C494.402 104.303 497.942 101.981 500.827 99.0205C503.711 96.061 505.901 92.6895 507.401 88.9055C508.899 85.123 509.648 81.1325 509.648 76.9355V74.3505C509.648 70.0795 508.862 66.016 507.288 62.156C505.715 58.2975 503.467 54.9065 500.546 51.9845H500.547ZM489.759 84.6905C488.56 87.388 486.799 89.4865 484.478 90.9844C482.155 92.4839 479.233 93.232 475.713 93.232C472.342 93.232 469.457 92.4839 467.06 90.9844C464.661 89.4865 462.863 87.388 461.666 84.6905C460.467 81.9925 459.868 78.997 459.868 75.699C459.868 72.178 460.486 69.087 461.722 66.427C462.958 63.768 464.773 61.6695 467.172 60.133C469.569 58.598 472.415 57.829 475.712 57.829C479.083 57.829 481.949 58.598 484.309 60.133C486.669 61.6695 488.466 63.768 489.703 66.427C490.939 69.087 491.557 72.178 491.557 75.699C491.557 78.9975 490.957 81.993 489.759 84.6905Z" fill="#FCFFFE"/>
<path d="M574.378 51.7031C571.979 48.8936 569.076 46.7211 565.668 45.1846C562.259 43.6496 558.457 42.8806 554.263 42.8806C549.467 42.8806 545.197 43.9486 541.452 46.0836C538.113 47.9866 535.42 50.7291 533.361 54.2971V24.2236H515.269V106.27H529.652V92.8726C530.049 93.9191 530.495 94.9231 531.001 95.8741C533.173 99.9586 536.17 103.05 539.99 105.146C543.812 107.243 548.231 108.293 553.251 108.293C557.67 108.293 561.64 107.507 565.162 105.933C568.683 104.36 571.698 102.131 574.209 99.2456C576.718 96.3616 578.628 92.9901 579.94 89.1306C581.25 85.2721 581.906 81.0946 581.906 76.5991V74.1266C581.906 69.6311 581.25 65.4721 579.94 61.6511C578.628 57.8296 576.774 54.5146 574.377 51.7041L574.378 51.7031ZM561.904 84.6341C560.629 87.3701 558.851 89.4861 556.566 90.9841C554.28 92.4836 551.602 93.2316 548.532 93.2316C545.983 93.2316 543.512 92.6331 541.115 91.4336C538.716 90.2356 536.75 88.4936 535.215 86.2071C533.679 83.9226 532.911 81.1691 532.911 77.9466V73.7881C532.911 70.4921 533.642 67.6456 535.103 65.2466C536.564 62.8491 538.492 61.0316 540.89 59.7956C543.287 58.5591 545.835 57.9411 548.532 57.9411C551.603 57.9411 554.28 58.6541 556.566 60.0766C558.85 61.5011 560.629 63.5246 561.904 66.1461C563.177 68.7696 563.814 71.8416 563.814 75.3626C563.814 78.8101 563.177 81.9006 561.904 84.6351V84.6341Z" fill="#FCFFFE"/>
<path d="M654.465 76.9355V74.3505C654.465 70.0795 653.679 66.016 652.105 62.156C650.532 58.2975 648.284 54.9065 645.363 51.9845C642.442 49.0625 638.901 46.758 634.744 45.0725C630.586 43.3865 625.846 42.543 620.528 42.543C615.358 42.543 610.676 43.3865 606.481 45.0725C602.284 46.758 598.707 49.062 595.748 51.9845C592.788 54.9065 590.523 58.2975 588.95 62.156C587.377 66.016 586.59 70.0795 586.59 74.3505V76.9355C586.59 81.133 587.338 85.123 588.837 88.9055C590.335 92.6895 592.545 96.0615 595.467 99.0205C598.39 101.981 601.946 104.302 606.143 105.989C610.338 107.674 615.133 108.518 620.527 108.518C625.995 108.518 630.827 107.674 635.023 105.989C639.218 104.303 642.758 101.981 645.642 99.0205C648.526 96.061 650.717 92.6895 652.216 88.9055C653.714 85.123 654.464 81.1325 654.464 76.9355H654.465ZM634.575 84.6905C633.376 87.388 631.615 89.4865 629.293 90.9844C626.971 92.4839 624.049 93.232 620.528 93.232C617.157 93.232 614.272 92.4839 611.875 90.9844C609.476 89.4865 607.678 87.388 606.481 84.6905C605.282 81.9925 604.683 78.997 604.683 75.699C604.683 72.178 605.301 69.087 606.537 66.427C607.774 63.768 609.589 61.6695 611.987 60.133C614.384 58.598 617.23 57.829 620.528 57.829C623.899 57.829 626.765 58.598 629.124 60.133C631.485 61.6695 633.282 63.768 634.518 66.427C635.754 69.087 636.372 72.178 636.372 75.699C636.372 78.9975 635.772 81.993 634.575 84.6905Z" fill="#FCFFFE"/>
<path d="M694.778 74.6152L711.076 44.6787H692.759L682.308 65.5837H680.51L669.385 44.6787H649.831L667.281 74.9212L649.157 106.27H667.474L679.948 83.9037H681.746L695.006 106.27H714.559L694.778 74.6152Z" fill="#FCFFFE"/>
</g>
<defs>
<clipPath id="clip0_6070_9443">
<rect width="715" height="162" fill="white"/>
</clipPath>
</defs>
</svg>
