<svg width="134" height="163" viewBox="0 0 134 163" fill="none" xmlns="http://www.w3.org/2000/svg">
<path d="M14.0872 150.659C12.9691 150.155 11.6768 149.839 10.2104 149.711L8.67073 149.573C7.75386 149.5 7.09398 149.253 6.69109 148.831C6.28747 148.409 6.0862 147.924 6.0862 147.374C6.0862 146.916 6.19618 146.499 6.41614 146.123C6.6361 145.747 6.97007 145.454 7.41952 145.243C7.86861 145.033 8.42327 144.927 9.08279 144.927C9.77933 144.927 10.3615 145.051 10.8289 145.298C11.2963 145.546 11.649 145.876 11.8873 146.288C12.1252 146.7 12.2447 147.154 12.2447 147.649H16.6439C16.6439 146.348 16.3415 145.207 15.7366 144.226C15.1317 143.246 14.2658 142.48 13.1385 141.93C12.0112 141.38 10.6592 141.105 9.08315 141.105C7.58009 141.105 6.27867 141.358 5.17923 141.861C4.07944 142.366 3.22233 143.085 2.60864 144.02C1.99422 144.954 1.68774 146.073 1.68774 147.374C1.68774 149.152 2.2831 150.577 3.47491 151.649C4.666 152.722 6.2607 153.35 8.25867 153.532L9.77089 153.642C10.9986 153.752 11.888 153.995 12.4379 154.371C12.9878 154.747 13.2628 155.256 13.2628 155.897C13.2628 156.41 13.1157 156.864 12.8228 157.258C12.5292 157.652 12.0984 157.959 11.5306 158.179C10.9623 158.399 10.2563 158.509 9.41346 158.509C8.47863 158.509 7.71794 158.376 7.13138 158.11C6.54482 157.844 6.1093 157.491 5.82555 157.051C5.54107 156.612 5.39919 156.135 5.39919 155.622H1C1 156.923 1.32517 158.074 1.97625 159.072C2.6266 160.072 3.575 160.864 4.8218 161.45C6.06824 162.037 7.59879 162.33 9.41346 162.33C11.1181 162.33 12.5842 162.064 13.8127 161.533C15.0404 161.001 15.9888 160.25 16.6582 159.278C17.3269 158.307 17.6616 157.18 17.6616 155.896C17.6616 154.65 17.3456 153.592 16.7132 152.721C16.0808 151.851 15.2054 151.163 14.0876 150.659L14.0872 150.659Z" fill="#111211"/>
<path d="M27.8604 146.248H27.668C26.5312 146.248 25.5875 146.518 24.836 147.059C24.1351 147.563 23.5958 148.289 23.2138 149.232V141.711H18.7871V161.782H23.2138V153.094C23.2138 152.232 23.4657 151.536 23.9697 151.004C24.4738 150.472 25.1381 150.207 25.9629 150.207C26.7508 150.207 27.3831 150.454 27.8601 150.949C28.3367 151.444 28.575 152.104 28.575 152.929V161.782H33.0016V153.204C33.0016 150.931 32.5617 149.203 31.6819 148.021C30.802 146.839 29.5277 146.248 27.8601 146.248H27.8604Z" fill="#111211"/>
<path d="M48.6041 148.502C47.8892 147.787 47.023 147.223 46.006 146.811C44.9887 146.399 43.8292 146.192 42.5281 146.192C41.2633 146.192 40.1177 146.399 39.0912 146.811C38.0644 147.224 37.1893 147.787 36.4653 148.502C35.7412 149.217 35.1869 150.046 34.802 150.99C34.4171 151.934 34.2246 152.928 34.2246 153.973V154.605C34.2246 155.632 34.4075 156.608 34.7745 157.534C35.1411 158.46 35.6818 159.284 36.3967 160.008C37.1116 160.732 37.9819 161.301 39.0087 161.713C40.0348 162.125 41.2083 162.332 42.5281 162.332C43.8658 162.332 45.0481 162.125 46.0749 161.713C47.1011 161.301 47.9673 160.733 48.673 160.008C49.3784 159.284 49.9147 158.46 50.2817 157.534C50.6483 156.609 50.8316 155.632 50.8316 154.605V153.973C50.8316 152.928 50.6391 151.934 50.2542 150.99C49.8692 150.046 49.3193 149.217 48.6045 148.502H48.6041ZM45.9646 156.503C45.6713 157.163 45.2406 157.676 44.6723 158.042C44.1041 158.409 43.3892 158.592 42.5277 158.592C41.7029 158.592 40.9972 158.409 40.4106 158.042C39.8237 157.676 39.3838 157.163 39.0909 156.503C38.7972 155.843 38.6509 155.11 38.6509 154.303C38.6509 153.442 38.802 152.686 39.1044 152.035C39.4069 151.385 39.8508 150.871 40.4377 150.495C41.0243 150.12 41.7205 149.931 42.5274 149.931C43.3522 149.931 44.0531 150.119 44.6305 150.495C45.2079 150.871 45.6479 151.384 45.9503 152.035C46.2527 152.686 46.4038 153.442 46.4038 154.303C46.4038 155.11 46.2568 155.843 45.9639 156.503H45.9646Z" fill="#111211"/>
<path d="M66.601 146.715H61.9818L56.5107 153.879V141.711H52.084V161.782H56.5107V154.743H57.9675L62.6967 161.782H67.6733L61.6508 153.15L66.601 146.715Z" fill="#111211"/>
<path d="M80.8424 148.502C80.1275 147.787 79.2612 147.223 78.2443 146.811C77.227 146.399 76.0674 146.192 74.7664 146.192C73.5016 146.192 72.356 146.399 71.3295 146.811C70.3027 147.224 69.4276 147.787 68.7035 148.502C67.9795 149.217 67.4252 150.046 67.0403 150.99C66.6554 151.934 66.4629 152.928 66.4629 153.973V154.605C66.4629 155.632 66.6458 156.608 67.0128 157.534C67.3794 158.46 67.9201 159.284 68.635 160.008C69.3499 160.732 70.2202 161.301 71.247 161.713C72.2731 162.125 73.4466 162.332 74.7664 162.332C76.1041 162.332 77.2864 162.125 78.3132 161.713C79.3393 161.301 80.2056 160.733 80.9113 160.008C81.6166 159.284 82.153 158.46 82.52 157.534C82.8866 156.609 83.0699 155.632 83.0699 154.605V153.973C83.0699 152.928 82.8774 151.934 82.4925 150.99C82.1075 150.046 81.5576 149.217 80.8428 148.502H80.8424ZM78.2029 156.503C77.9096 157.163 77.4788 157.676 76.9106 158.042C76.3424 158.409 75.6275 158.592 74.766 158.592C73.9412 158.592 73.2354 158.409 72.6489 158.042C72.062 157.676 71.622 157.163 71.3291 156.503C71.0355 155.843 70.8892 155.11 70.8892 154.303C70.8892 153.442 71.0403 152.686 71.3427 152.035C71.6451 151.385 72.0891 150.871 72.676 150.495C73.2626 150.12 73.9587 149.931 74.7656 149.931C75.5905 149.931 76.2914 150.119 76.8688 150.495C77.4462 150.871 77.8861 151.384 78.1886 152.035C78.491 152.686 78.6421 153.442 78.6421 154.303C78.6421 155.11 78.4951 155.843 78.2021 156.503H78.2029Z" fill="#111211"/>
<path d="M98.9053 148.433C98.3184 147.745 97.6083 147.214 96.7747 146.838C95.9403 146.463 95.0102 146.274 93.9841 146.274C92.811 146.274 91.7662 146.536 90.8497 147.058C90.0329 147.523 89.3738 148.194 88.87 149.067V141.71H84.4434V161.781H87.9627V158.503C88.0599 158.759 88.1687 159.005 88.2927 159.237C88.8242 160.237 89.5574 160.993 90.4923 161.506C91.4271 162.018 92.5085 162.276 93.7367 162.276C94.8178 162.276 95.7892 162.083 96.6511 161.698C97.5126 161.313 98.2499 160.768 98.8643 160.062C99.4783 159.357 99.9458 158.532 100.267 157.588C100.587 156.644 100.748 155.622 100.748 154.522V153.917C100.748 152.818 100.587 151.8 100.267 150.865C99.9458 149.931 99.4919 149.12 98.9057 148.432L98.9053 148.433ZM95.8534 156.488C95.5414 157.158 95.1063 157.675 94.5476 158.042C93.9881 158.409 93.333 158.592 92.5819 158.592C91.9586 158.592 91.3538 158.445 90.7672 158.152C90.1803 157.859 89.6993 157.432 89.3239 156.873C88.9481 156.314 88.7601 155.64 88.7601 154.852V153.835C88.7601 153.029 88.9386 152.332 89.2964 151.745C89.6538 151.159 90.1256 150.714 90.7122 150.412C91.2984 150.11 91.922 149.958 92.5819 149.958C93.333 149.958 93.9885 150.133 94.5476 150.481C95.1066 150.829 95.5414 151.324 95.8534 151.966C96.165 152.608 96.3208 153.359 96.3208 154.22C96.3208 155.063 96.165 155.82 95.8534 156.488Z" fill="#111211"/>
<path d="M118.5 154.605V153.973C118.5 152.928 118.308 151.934 117.923 150.99C117.538 150.046 116.988 149.217 116.273 148.502C115.558 147.787 114.692 147.223 113.675 146.811C112.658 146.399 111.498 146.192 110.197 146.192C108.932 146.192 107.787 146.399 106.76 146.811C105.733 147.224 104.858 147.787 104.134 148.502C103.41 149.217 102.856 150.046 102.471 150.99C102.086 151.934 101.894 152.928 101.894 153.973V154.605C101.894 155.632 102.076 156.608 102.443 157.534C102.81 158.46 103.351 159.284 104.066 160.008C104.781 160.732 105.651 161.301 106.678 161.713C107.704 162.125 108.877 162.332 110.197 162.332C111.535 162.332 112.717 162.125 113.744 161.713C114.77 161.301 115.636 160.733 116.342 160.008C117.047 159.284 117.584 158.46 117.951 157.534C118.317 156.609 118.501 155.632 118.501 154.605H118.5ZM113.634 156.503C113.34 157.163 112.91 157.676 112.341 158.042C111.773 158.409 111.058 158.592 110.197 158.592C109.372 158.592 108.666 158.409 108.08 158.042C107.493 157.676 107.053 157.163 106.76 156.503C106.466 155.843 106.32 155.11 106.32 154.303C106.32 153.442 106.471 152.686 106.773 152.035C107.076 151.385 107.52 150.871 108.107 150.495C108.693 150.12 109.389 149.931 110.196 149.931C111.021 149.931 111.722 150.119 112.299 150.495C112.877 150.871 113.317 151.384 113.619 152.035C113.922 152.686 114.073 153.442 114.073 154.303C114.073 155.11 113.926 155.843 113.633 156.503H113.634Z" fill="#111211"/>
<path d="M128.363 154.038L132.351 146.715H127.869L125.312 151.829H124.872L122.15 146.715H117.366L121.635 154.113L117.201 161.781H121.683L124.734 156.31H125.174L128.419 161.781H133.203L128.363 154.038Z" fill="#111211"/>
<path d="M106.865 0.333008H72.9218C70.8556 0.333008 69.1807 2.00796 69.1807 4.07414V33.2518C69.1807 35.318 70.8556 36.993 72.9218 36.993H106.865C108.931 36.993 110.606 35.318 110.606 33.2518V4.07414C110.606 2.00796 108.931 0.333008 106.865 0.333008Z" fill="#111211"/>
<path d="M61.0401 82.4512H27.0966C25.0304 82.4512 23.3555 84.1262 23.3555 86.1923V115.37C23.3555 117.436 25.0304 119.111 27.0966 119.111H61.0401C63.1062 119.111 64.7812 117.436 64.7812 115.37V86.1923C64.7812 84.1262 63.1062 82.4512 61.0401 82.4512Z" fill="#111211"/>
<path d="M40.3228 1.42816L24.4512 17.2997C23.7496 18.0014 23.3555 18.9527 23.3555 19.9451V33.2512C23.3555 35.3174 25.0305 36.9923 27.0966 36.9923H61.0404C63.1066 36.9923 64.7816 35.3174 64.7816 33.2512V4.07316C64.7816 2.00701 63.1066 0.332031 61.0404 0.332031H42.9685C41.9765 0.332031 41.0248 0.726131 40.3232 1.4278L40.3228 1.42816Z" fill="#111211"/>
<path d="M40.3228 76.9558L24.4512 61.0842C23.7496 60.3826 23.3555 59.4312 23.3555 58.4388V45.1327C23.3555 43.0666 25.0305 41.3916 27.0966 41.3916H61.0404C63.1066 41.3916 64.7816 43.0666 64.7816 45.1327V74.3107C64.7816 76.3769 63.1066 78.0519 61.0404 78.0519H42.9685C41.9765 78.0519 41.0248 77.6578 40.3232 76.9561L40.3228 76.9558Z" fill="#111211"/>
<path d="M93.6385 42.4877L109.51 58.3593C110.212 59.0609 110.606 60.0123 110.606 61.0047V74.3107C110.606 76.3769 108.931 78.0519 106.865 78.0519H72.9208C70.8547 78.0519 69.1797 76.3769 69.1797 74.3107V45.1327C69.1797 43.0666 70.8547 41.3916 72.9208 41.3916H90.9927C91.9847 41.3916 92.9364 41.7857 93.6381 42.4874L93.6385 42.4877Z" fill="#111211"/>
<path d="M93.6385 118.015L109.51 102.144C110.212 101.442 110.606 100.491 110.606 99.4984V86.1923C110.606 84.1262 108.931 82.4512 106.865 82.4512H72.9208C70.8547 82.4512 69.1797 84.1262 69.1797 86.1923V115.37C69.1797 117.436 70.8547 119.111 72.9208 119.111H90.9927C91.9847 119.111 92.9364 118.717 93.6381 118.016L93.6385 118.015Z" fill="#111211"/>
</svg>
